<svg width="513" height="288" viewBox="0 0 513 288" fill="none" xmlns="http://www.w3.org/2000/svg">
<g opacity="0.5">
<path d="M40.3617 246.679C40.3617 232.272 52.0415 220.592 66.4493 220.592H422.796C437.203 220.592 448.883 232.272 448.883 246.679V260.918C448.883 275.325 437.203 287.005 422.795 287.005H66.4493C52.0415 287.005 40.3617 275.325 40.3617 260.918V246.679Z" fill="white"/>
<path d="M40.3617 246.679C40.3617 232.272 52.0415 220.592 66.4493 220.592H422.796C437.203 220.592 448.883 232.272 448.883 246.679V260.918C448.883 275.325 437.203 287.005 422.795 287.005H66.4493C52.0415 287.005 40.3617 275.325 40.3617 260.918V246.679Z" stroke="white" stroke-width="1.11011"/>
<path d="M224.302 255.16H218.263V261.798H215.421V245.568H225.456V248.188H218.263V252.607H224.302V255.16ZM234.384 250.83H237.093V261.798H234.584L234.384 260.333C233.718 261.376 232.297 262.087 230.831 262.087C228.3 262.087 226.813 260.377 226.813 257.691V250.83H229.522V256.736C229.522 258.823 230.343 259.667 231.853 259.667C233.562 259.667 234.384 258.668 234.384 256.581V250.83ZM242.621 261.798H239.935V245.28H242.621V261.798ZM248.726 262.087C246.395 262.087 244.974 260.733 244.974 258.668C244.974 256.647 246.439 255.382 249.037 255.182L252.323 254.938V254.694C252.323 253.206 251.435 252.607 250.058 252.607C248.46 252.607 247.572 253.273 247.572 254.427H245.263C245.263 252.052 247.216 250.497 250.192 250.497C253.144 250.497 254.965 252.096 254.965 255.138V261.798H252.589L252.39 260.178C251.923 261.31 250.436 262.087 248.726 262.087ZM249.614 260.044C251.279 260.044 252.345 259.045 252.345 257.358V256.781L250.058 256.958C248.371 257.114 247.727 257.669 247.727 258.557C247.727 259.556 248.393 260.044 249.614 260.044ZM260.335 261.798H257.626V250.83H260.135L260.357 252.251C261.045 251.141 262.377 250.497 263.865 250.497C266.618 250.497 268.039 252.207 268.039 255.049V261.798H265.33V255.693C265.33 253.85 264.42 252.962 263.021 252.962C261.356 252.962 260.335 254.116 260.335 255.893V261.798ZM272.054 248.632C271.122 248.632 270.389 247.9 270.389 246.989C270.389 246.079 271.122 245.369 272.054 245.369C272.943 245.369 273.675 246.079 273.675 246.989C273.675 247.9 272.943 248.632 272.054 248.632ZM270.7 261.798V250.83H273.409V261.798H270.7Z" fill="#389464"/>
</g>
<g opacity="0.7">
<path d="M16.5767 194.952C16.5767 178.866 29.6166 165.826 45.7022 165.826H443.544C459.629 165.826 472.669 178.866 472.669 194.952V210.122C472.669 226.207 459.629 239.247 443.544 239.247H45.7022C29.6166 239.247 16.5767 226.207 16.5767 210.122V194.952Z" fill="white"/>
<path d="M16.5767 194.952C16.5767 178.866 29.6166 165.826 45.7022 165.826H443.544C459.629 165.826 472.669 178.866 472.669 194.952V210.122C472.669 226.207 459.629 239.247 443.544 239.247H45.7022C29.6166 239.247 16.5767 226.207 16.5767 210.122V194.952Z" stroke="white" stroke-width="1.23938"/>
<path d="M209.993 204.898L203.871 193.917H207.415L210.985 200.51C211.257 201.006 211.431 201.403 211.629 201.849C211.852 201.403 211.951 201.105 212.274 200.51L215.818 193.917H219.264L213.166 204.898V212.037H209.993V204.898ZM217.779 205.889C217.779 202.072 220.531 199.445 224.323 199.445C228.116 199.445 230.867 202.072 230.867 205.889C230.867 209.707 228.116 212.334 224.323 212.334C220.531 212.334 217.779 209.707 217.779 205.889ZM220.803 205.889C220.803 208.12 222.241 209.632 224.323 209.632C226.405 209.632 227.843 208.12 227.843 205.889C227.843 203.658 226.405 202.146 224.323 202.146C222.241 202.146 220.803 203.658 220.803 205.889ZM240.948 199.742V202.543H239.833C237.652 202.543 236.288 203.708 236.288 206.088V212.037H233.264V199.816H236.115L236.288 201.601C236.809 200.386 237.974 199.568 239.61 199.568C240.031 199.568 240.453 199.618 240.948 199.742ZM251.299 199.792H254.323V212.037H251.522L251.299 210.401C250.555 211.566 248.969 212.359 247.333 212.359C244.507 212.359 242.847 210.45 242.847 207.451V199.792H245.871V206.385C245.871 208.715 246.788 209.657 248.473 209.657C250.382 209.657 251.299 208.542 251.299 206.212V199.792ZM260.248 212.037H257.447V193.595H260.471V201.576C261.264 200.213 262.9 199.395 264.759 199.395C268.254 199.395 270.386 202.122 270.386 205.988C270.386 209.756 268.081 212.359 264.561 212.359C262.726 212.359 261.165 211.541 260.446 210.128L260.248 212.037ZM260.495 205.865C260.495 208.071 261.859 209.583 263.941 209.583C266.073 209.583 267.337 208.046 267.337 205.865C267.337 203.683 266.073 202.122 263.941 202.122C261.859 202.122 260.495 203.658 260.495 205.865ZM276.437 212.359C273.835 212.359 272.248 210.847 272.248 208.542C272.248 206.286 273.884 204.873 276.784 204.65L280.453 204.377V204.105C280.453 202.444 279.462 201.775 277.925 201.775C276.14 201.775 275.148 202.518 275.148 203.807H272.571C272.571 201.155 274.752 199.42 278.073 199.42C281.37 199.42 283.403 201.204 283.403 204.6V212.037H280.75L280.527 210.227C280.007 211.491 278.346 212.359 276.437 212.359ZM277.429 210.078C279.288 210.078 280.478 208.963 280.478 207.079V206.435L277.925 206.633C276.041 206.806 275.322 207.426 275.322 208.418C275.322 209.533 276.066 210.078 277.429 210.078Z" fill="#389464"/>
</g>
<g opacity="0.7">
<path d="M16.5767 87.6021C16.5767 71.5166 29.6166 58.4766 45.7022 58.4766H443.544C459.629 58.4766 472.669 71.5165 472.669 87.6021V102.772C472.669 118.858 459.629 131.897 443.544 131.897H45.7022C29.6166 131.897 16.5767 118.858 16.5767 102.772V87.6021Z" fill="white"/>
<path d="M16.5767 87.6021C16.5767 71.5166 29.6166 58.4766 45.7022 58.4766H443.544C459.629 58.4766 472.669 71.5165 472.669 87.6021V102.772C472.669 118.858 459.629 131.897 443.544 131.897H45.7022C29.6166 131.897 16.5767 118.858 16.5767 102.772V87.6021Z" stroke="white" stroke-width="1.23938"/>
<path d="M213.803 104.687H210.631V86.5673H213.803V94.0531H221.835V86.5673H225.007V104.687H221.835V97.0028H213.803V104.687ZM232.225 105.009C229.623 105.009 228.036 103.497 228.036 101.192C228.036 98.9363 229.672 97.5234 232.572 97.3003L236.241 97.0276V96.755C236.241 95.0942 235.249 94.4249 233.713 94.4249C231.928 94.4249 230.936 95.1686 230.936 96.4575H228.358C228.358 93.8052 230.54 92.0701 233.861 92.0701C237.158 92.0701 239.191 93.8548 239.191 97.2507V104.687H236.538L236.315 102.878C235.795 104.142 234.134 105.009 232.225 105.009ZM233.217 102.729C235.076 102.729 236.266 101.613 236.266 99.7295V99.085L233.713 99.2833C231.829 99.4568 231.11 100.077 231.11 101.068C231.11 102.183 231.853 102.729 233.217 102.729ZM250.465 92.4419H253.489V104.687H250.688L250.465 103.051C249.722 104.216 248.135 105.009 246.499 105.009C243.673 105.009 242.013 103.101 242.013 100.101V92.4419H245.037V99.0354C245.037 101.365 245.954 102.307 247.639 102.307C249.548 102.307 250.465 101.192 250.465 98.8619V92.4419ZM255.429 100.969H258.304C258.329 102.035 259.122 102.704 260.51 102.704C261.923 102.704 262.692 102.134 262.692 101.242C262.692 100.622 262.369 100.176 261.279 99.9278L259.073 99.4072C256.866 98.9115 255.801 97.8704 255.801 95.9122C255.801 93.5078 257.833 92.0701 260.659 92.0701C263.41 92.0701 265.269 93.6565 265.294 96.0361H262.419C262.394 94.995 261.7 94.3258 260.535 94.3258C259.345 94.3258 258.651 94.8711 258.651 95.7883C258.651 96.4823 259.197 96.9285 260.238 97.1764L262.444 97.6969C264.501 98.1679 265.542 99.1098 265.542 100.994C265.542 103.472 263.435 105.009 260.411 105.009C257.362 105.009 255.429 103.373 255.429 100.969ZM271.488 105.009C268.886 105.009 267.299 103.497 267.299 101.192C267.299 98.9363 268.935 97.5234 271.836 97.3003L275.504 97.0276V96.755C275.504 95.0942 274.513 94.4249 272.976 94.4249C271.191 94.4249 270.2 95.1686 270.2 96.4575H267.622C267.622 93.8052 269.803 92.0701 273.124 92.0701C276.421 92.0701 278.454 93.8548 278.454 97.2507V104.687H275.802L275.578 102.878C275.058 104.142 273.397 105.009 271.488 105.009ZM272.48 102.729C274.339 102.729 275.529 101.613 275.529 99.7295V99.085L272.976 99.2833C271.092 99.4568 270.373 100.077 270.373 101.068C270.373 102.183 271.117 102.729 272.48 102.729Z" fill="#389464"/>
</g>
<g opacity="0.5">
<path d="M40.3617 26.7379C40.3617 12.3301 52.0415 0.650271 66.4493 0.650271H422.796C437.203 0.650271 448.883 12.3301 448.883 26.7379V40.9761C448.883 55.3839 437.203 67.0638 422.795 67.0638H66.4493C52.0415 67.0638 40.3617 55.3839 40.3617 40.9761V26.7379Z" fill="white"/>
<path d="M40.3617 26.7379C40.3617 12.3301 52.0415 0.650271 66.4493 0.650271H422.796C437.203 0.650271 448.883 12.3301 448.883 26.7379V40.9761C448.883 55.3839 437.203 67.0638 422.795 67.0638H66.4493C52.0415 67.0638 40.3617 55.3839 40.3617 40.9761V26.7379Z" stroke="white" stroke-width="1.11011"/>
<path d="M225.263 25.6271V41.8569H222.421V25.6271H225.263ZM227.839 36.1288C227.839 32.9316 229.926 30.5338 233.056 30.5338C234.699 30.5338 235.987 31.2221 236.631 32.3988L236.786 30.889H239.295V41.3019C239.295 44.9652 237.097 47.2521 233.545 47.2521C230.392 47.2521 228.239 45.4537 227.906 42.523H230.614C230.792 43.9439 231.88 44.7876 233.545 44.7876C235.41 44.7876 236.609 43.6109 236.609 41.7903V39.9697C235.921 40.991 234.566 41.6349 232.99 41.6349C229.882 41.6349 227.839 39.3037 227.839 36.1288ZM230.57 36.0621C230.57 37.9049 231.747 39.2815 233.523 39.2815C235.388 39.2815 236.542 37.9715 236.542 36.0621C236.542 34.1972 235.41 32.9094 233.523 32.9094C231.724 32.9094 230.57 34.2638 230.57 36.0621ZM244.607 41.8569H242.098V25.3385H244.807V32.4876C245.518 31.2665 246.983 30.5338 248.648 30.5338C251.779 30.5338 253.688 32.976 253.688 36.4396C253.688 39.8143 251.623 42.1456 248.471 42.1456C246.828 42.1456 245.429 41.4129 244.785 40.1474L244.607 41.8569ZM244.829 36.3286C244.829 38.3046 246.05 39.6589 247.915 39.6589C249.825 39.6589 250.957 38.2824 250.957 36.3286C250.957 34.3748 249.825 32.976 247.915 32.976C246.05 32.976 244.829 34.3526 244.829 36.3286ZM255.201 36.3508C255.201 32.9316 257.665 30.5782 261.062 30.5782C264.459 30.5782 266.924 32.9316 266.924 36.3508C266.924 39.7699 264.459 42.1234 261.062 42.1234C257.665 42.1234 255.201 39.7699 255.201 36.3508ZM257.91 36.3508C257.91 38.349 259.197 39.7033 261.062 39.7033C262.927 39.7033 264.215 38.349 264.215 36.3508C264.215 34.3526 262.927 32.9982 261.062 32.9982C259.197 32.9982 257.91 34.3526 257.91 36.3508Z" fill="#389464"/>
</g>
<path d="M0.662935 137.814C0.662935 120.606 14.6128 106.656 31.8209 106.656H457.425C474.633 106.656 488.583 120.605 488.583 137.814V154.6C488.583 171.808 474.633 185.758 457.425 185.758H31.8208C14.6128 185.758 0.662935 171.808 0.662935 154.6V137.814Z" fill="white"/>
<path d="M0.662935 137.814C0.662935 120.606 14.6128 106.656 31.8209 106.656H457.425C474.633 106.656 488.583 120.605 488.583 137.814V154.6C488.583 171.808 474.633 185.758 457.425 185.758H31.8208C14.6128 185.758 0.662935 171.808 0.662935 154.6V137.814Z" stroke="white" stroke-width="1.32587"/>
<path d="M214.31 156.207H202.271V136.822H214.31V139.951H205.665V144.937H213.408V147.933H205.665V153.077H214.31V156.207ZM220.747 156.207H217.512V143.107H220.509L220.774 144.804C221.596 143.478 223.187 142.709 224.964 142.709C228.252 142.709 229.949 144.751 229.949 148.145V156.207H226.714V148.914C226.714 146.713 225.627 145.653 223.956 145.653C221.967 145.653 220.747 147.032 220.747 149.153V156.207ZM232.385 149.365C232.385 145.547 234.878 142.683 238.617 142.683C240.579 142.683 242.117 143.505 242.886 144.91L243.071 143.107H246.068V155.544C246.068 159.919 243.443 162.65 239.2 162.65C235.434 162.65 232.862 160.502 232.464 157.002H235.7C235.912 158.699 237.211 159.707 239.2 159.707C241.427 159.707 242.859 158.301 242.859 156.127V153.953C242.037 155.172 240.42 155.941 238.537 155.941C234.825 155.941 232.385 153.157 232.385 149.365ZM235.647 149.286C235.647 151.486 237.052 153.131 239.173 153.131C241.401 153.131 242.78 151.566 242.78 149.286C242.78 147.058 241.427 145.52 239.173 145.52C237.025 145.52 235.647 147.138 235.647 149.286ZM252.678 156.207H249.469V136.478H252.678V156.207ZM257.689 140.482C256.575 140.482 255.7 139.607 255.7 138.519C255.7 137.432 256.575 136.584 257.689 136.584C258.749 136.584 259.625 137.432 259.625 138.519C259.625 139.607 258.749 140.482 257.689 140.482ZM256.071 156.207V143.107H259.306V156.207H256.071ZM261.641 152.229H264.717C264.744 153.369 265.592 154.085 267.077 154.085C268.589 154.085 269.411 153.475 269.411 152.521C269.411 151.858 269.066 151.38 267.899 151.115L265.539 150.558C263.179 150.028 262.039 148.914 262.039 146.819C262.039 144.247 264.213 142.709 267.236 142.709C270.18 142.709 272.168 144.406 272.195 146.952H269.119C269.092 145.838 268.35 145.122 267.104 145.122C265.831 145.122 265.088 145.706 265.088 146.687C265.088 147.429 265.672 147.907 266.785 148.172L269.145 148.729C271.346 149.232 272.46 150.24 272.46 152.255C272.46 154.907 270.206 156.551 266.971 156.551C263.709 156.551 261.641 154.801 261.641 152.229ZM278.159 156.207H274.923V136.478H278.185V144.804C279.007 143.531 280.545 142.709 282.428 142.709C285.663 142.709 287.36 144.751 287.36 148.145V156.207H284.125V148.914C284.125 146.713 283.038 145.653 281.394 145.653C279.352 145.653 278.159 147.085 278.159 149.047V156.207Z" fill="#389464"/>
</svg>
