<svg width="24" height="25" viewBox="0 0 24 25" fill="none" xmlns="http://www.w3.org/2000/svg">
<path d="M14 9.88789V12.7879H16.6C16.8 12.7879 16.9 12.9879 16.9 13.1879L16.5 15.0879C16.5 15.1879 16.3 15.2879 16.2 15.2879H14V22.5879H11V15.3879H9.3C9.1 15.3879 9 15.2879 9 15.0879V13.1879C9 12.9879 9.1 12.8879 9.3 12.8879H11V9.58789C11 7.88789 12.3 6.58789 14 6.58789H16.7C16.9 6.58789 17 6.68789 17 6.88789V9.28789C17 9.48789 16.9 9.58789 16.7 9.58789H14.3C14.1 9.58789 14 9.68789 14 9.88789Z" stroke="#004B52" stroke-width="1.5" stroke-miterlimit="10" stroke-linecap="round"/>
<path d="M15 22.5879H9C4 22.5879 2 20.5879 2 15.5879V9.58789C2 4.58789 4 2.58789 9 2.58789H15C20 2.58789 22 4.58789 22 9.58789V15.5879C22 20.5879 20 22.5879 15 22.5879Z" stroke="#004B52" stroke-width="1.5" stroke-linecap="round" stroke-linejoin="round"/>
</svg>
