<svg width="1464" height="814" viewBox="0 0 1464 814" fill="none" xmlns="http://www.w3.org/2000/svg">
<path d="M949.803 1352C978.681 1336.47 991.741 1304.65 991.526 1272.7C991.311 1240.75 979.576 1208.3 966.923 1176.75C950.198 1135.03 930.96 1092.66 898.197 1057.63C852.533 1008.81 786.087 979.959 721.168 957.89C605.893 918.704 486.986 894.972 368.496 877.807C241.479 859.405 109.022 846.742 -6.05412 784.399C-109.324 728.456 -160.741 650.828 -210.402 558.792C-256.719 472.952 -283.531 378.1 -355.583 301.807C-450.127 201.698 -603.723 155.669 -736.865 168.238C-870.006 180.807 -983.657 244.922 -1070.69 327.31" stroke="#13AE67" stroke-width="0.864782" stroke-miterlimit="10"/>
<path d="M964.928 1346.25C990.645 1333.22 999.353 1303.38 996.31 1272.04C993.274 1240.79 980.431 1208.5 966.12 1177.65C947.278 1137.03 926.623 1095.26 892.318 1060.72C843.565 1011.62 774.544 980.719 707.768 956.559C593.975 915.381 476.473 890.32 359.802 871.554C235.696 851.594 106.199 838.433 -6.56198 776.463C-109.422 719.935 -162.921 643.06 -214.753 553.544C-263.355 470.02 -293.384 379.112 -366.063 306.099C-461.106 210.616 -612.254 167.156 -744.525 178.795C-877.287 190.362 -990.569 249.355 -1078.66 328.038" stroke="#13AE67" stroke-width="0.864782" stroke-miterlimit="10"/>
<path d="M980.064 1340.51C1002.62 1329.98 1007 1302.21 1001.1 1271.38C995.271 1240.92 981.315 1208.72 965.324 1178.56C944.381 1139.07 922.251 1097.88 886.448 1063.81C834.553 1014.43 763.041 981.538 694.385 955.238C582.074 912.211 466 885.688 351.125 865.312C229.941 843.818 103.391 830.115 -7.05162 768.533C-109.497 711.408 -164.881 635.213 -219.092 548.304C-269.782 467.032 -303.187 380.161 -376.526 310.401C-472.023 219.567 -620.769 178.652 -752.171 189.367C-884.559 199.928 -997.47 253.796 -1086.62 328.779" stroke="#13AE67" stroke-width="0.864782" stroke-miterlimit="10"/>
<path d="M995.144 1334.76C1014.54 1326.73 1014.64 1301.14 1005.84 1270.71C997.273 1241.11 982.15 1208.93 964.475 1179.46C941.463 1141.1 917.795 1100.5 880.529 1066.9C825.45 1017.24 751.507 982.39 680.947 953.904C570.114 909.157 455.495 881.059 342.398 859.059C224.158 836.056 100.538 821.774 -7.59286 760.597C-109.626 702.869 -167.005 627.402 -223.476 543.055C-276.364 464.061 -312.995 381.216 -387.038 314.693C-482.943 228.521 -629.335 190.142 -759.865 199.924C-891.871 209.478 -1004.41 258.224 -1094.63 329.503" stroke="#13AE67" stroke-width="0.864782" stroke-miterlimit="10"/>
<path d="M1010.27 1329.01C1026.51 1323.48 1022.41 1300.16 1010.63 1270.05C999.405 1241.38 983.062 1209.16 963.673 1180.37C938.611 1143.15 913.355 1103.13 874.652 1069.98C816.351 1020.06 740.028 983.291 667.556 952.577C558.19 906.228 445.06 876.459 333.715 852.806C218.442 828.321 97.7387 813.415 -8.08843 752.657C-109.71 694.316 -169.095 619.576 -227.816 537.807C-282.911 461.085 -322.724 382.294 -397.505 318.981C-493.762 237.487 -637.854 201.625 -767.513 210.477C-899.144 219.037 -1011.32 262.657 -1102.59 330.236" stroke="#13AE67" stroke-width="0.864782" stroke-miterlimit="10"/>
<path d="M1025.39 1323.26C1038.46 1320.23 1030.25 1299.25 1015.4 1269.39C1001.63 1241.72 983.979 1209.41 962.858 1181.27C935.782 1145.2 908.877 1105.77 868.767 1073.07C807.209 1022.9 728.546 984.233 654.153 951.249C546.237 903.405 434.64 871.874 325.018 846.556C212.723 820.622 94.9282 805.04 -8.59978 744.723C-109.811 685.759 -171.207 611.758 -232.172 532.565C-289.486 458.114 -332.423 383.39 -407.985 323.281C-504.539 246.474 -646.325 213.379 -775.176 221.047C-906.368 228.853 -1018.23 267.092 -1110.57 330.967" stroke="#13AE67" stroke-width="0.864782" stroke-miterlimit="10"/>
<path d="M1040.52 1317.52C1050.44 1316.99 1038.21 1298.4 1020.19 1268.73C1004 1242.08 984.94 1209.65 962.065 1182.18C932.997 1147.27 904.398 1108.43 862.898 1076.16C798.051 1025.75 717.088 985.219 640.769 949.929C534.28 900.685 424.26 867.322 316.339 840.314C207.044 812.96 92.1481 796.659 -9.09296 736.797C-109.888 677.199 -173.316 603.942 -236.509 527.328C-296.049 455.143 -342.051 384.505 -418.45 327.584C-515.24 255.467 -654.833 224.919 -782.822 231.615C-913.624 238.457 -1025.13 271.528 -1118.53 331.702" stroke="#13AE67" stroke-width="0.864782" stroke-miterlimit="10"/>
<path d="M1055.62 1311.76C1062.37 1313.73 1046.25 1297.56 1024.95 1268.07C1006.43 1242.44 985.874 1209.9 961.229 1183.08C930.197 1149.33 899.856 1111.1 856.987 1079.25C788.826 1028.61 705.585 986.241 627.34 948.596C522.265 898.041 413.859 862.783 307.616 834.059C201.333 805.321 89.3269 788.248 -9.6282 728.855C-110.002 668.61 -175.473 596.11 -240.889 522.077C-302.664 452.162 -351.675 385.616 -428.958 331.874C-525.915 264.448 -663.39 236.443 -790.514 242.174C-920.933 248.053 -1032.07 275.96 -1126.54 332.43" stroke="#13AE67" stroke-width="0.864782" stroke-miterlimit="10"/>
<path d="M1070.74 1306.02C1074.34 1310.49 1054.42 1296.72 1029.73 1267.41C1008.99 1242.8 986.866 1210.14 960.426 1183.99C927.461 1151.38 895.332 1113.78 851.115 1082.34C779.609 1031.5 694.113 987.306 613.954 947.269C510.271 895.484 403.517 858.277 298.942 827.809C195.687 797.727 86.5625 779.826 -10.1113 720.924C-110.064 660.023 -177.594 588.287 -245.215 516.834C-309.24 449.184 -361.189 386.738 -439.407 336.169C-536.467 273.422 -671.889 247.967 -798.143 252.734C-928.195 257.648 -1038.97 280.399 -1134.49 333.165" stroke="#13AE67" stroke-width="0.864782" stroke-miterlimit="10"/>
<path d="M1085.87 1300.27C1086.3 1307.24 1062.68 1295.85 1034.51 1266.75C1011.64 1243.12 987.87 1210.38 959.616 1184.9C924.735 1153.43 890.781 1116.48 845.229 1085.43C770.363 1034.4 682.62 988.414 600.55 945.943C498.233 892.994 393.182 853.804 290.244 821.562C190.032 790.173 83.778 771.386 -10.6221 712.989C-110.148 651.42 -179.751 580.465 -249.57 511.591C-315.85 446.204 -370.678 387.857 -449.89 340.466C-546.981 282.38 -680.422 259.489 -805.815 263.299C-935.471 267.237 -1045.88 284.829 -1142.47 333.897" stroke="#13AE67" stroke-width="0.864782" stroke-miterlimit="10"/>
<path d="M1100.99 1294.52C1098.26 1304 1071 1294.92 1039.29 1266.09C1014.34 1243.4 988.886 1210.61 958.807 1185.8C922.037 1155.47 886.226 1119.19 839.346 1088.51C761.099 1037.32 671.116 989.557 587.153 944.614C486.177 890.563 382.873 849.36 281.553 815.31C184.391 782.661 81.0113 762.931 -11.1273 705.054C-110.228 642.807 -181.914 572.643 -253.923 506.342C-322.473 443.226 -380.113 388.956 -460.372 344.757C-557.424 291.308 -688.952 271.004 -813.477 273.855C-942.755 276.814 -1052.79 289.257 -1150.44 334.619" stroke="#13AE67" stroke-width="0.864782" stroke-miterlimit="10"/>
<path d="M1116.12 1288.78C1110.23 1300.75 1079.4 1293.94 1044.08 1265.43C1017.1 1243.65 989.935 1210.84 958.011 1186.71C919.363 1157.5 881.667 1121.91 833.479 1091.61C751.835 1040.27 659.614 990.751 573.765 943.295C474.104 888.199 372.585 844.961 272.872 809.07C178.771 775.199 78.2632 754.469 -11.6232 697.131C-110.291 634.189 -184.081 564.836 -258.264 501.11C-329.09 440.266 -389.476 390.059 -470.836 349.068C-567.783 300.225 -697.468 282.533 -821.123 284.431C-950.021 286.411 -1059.69 293.705 -1158.4 335.366" stroke="#13AE67" stroke-width="0.864782" stroke-miterlimit="10"/>
<path d="M1131.22 1283.03C1122.17 1297.5 1087.8 1292.89 1048.84 1264.76C1019.84 1243.83 990.958 1211.04 957.182 1187.61C916.676 1159.5 877.072 1124.64 827.576 1094.69C742.519 1043.23 648.057 991.968 560.349 941.959C461.983 885.87 362.284 840.587 264.166 802.815C173.127 767.766 75.4984 745.976 -12.1415 689.188C-110.369 625.538 -186.278 557.015 -262.625 495.856C-335.741 437.287 -398.81 391.109 -481.324 353.35C-578.102 309.067 -706.012 294.031 -828.794 294.982C-957.317 295.981 -1066.62 298.129 -1166.39 336.09" stroke="#13AE67" stroke-width="0.864782" stroke-miterlimit="10"/>
<path d="M1146.34 1277.28C1134.13 1294.25 1096.24 1291.77 1053.61 1264.1C1022.61 1243.98 992 1211.24 956.37 1188.52C914.013 1161.5 872.485 1127.39 821.687 1097.79C733.207 1046.22 636.491 993.239 546.942 940.638C449.842 883.604 352.002 836.265 255.466 796.568C167.498 760.398 72.7522 737.478 -12.6553 681.258C-110.437 616.886 -188.484 549.209 -266.984 490.617C-342.397 434.329 -408.096 392.14 -491.811 357.651C-588.361 317.876 -714.552 305.541 -836.462 305.549C-964.612 305.557 -1073.53 302.563 -1174.37 336.82" stroke="#13AE67" stroke-width="0.864782" stroke-miterlimit="10"/>
<path d="M1161.47 1271.54C1146.1 1291.01 1104.69 1290.6 1058.4 1263.44C1025.39 1244.08 993.072 1211.43 955.573 1189.42C911.371 1163.49 867.909 1130.14 815.821 1100.87C723.91 1049.22 624.924 994.536 533.563 939.309C437.7 881.364 341.75 831.979 246.793 790.317C161.892 753.068 70.04 728.96 -13.1407 673.319C-110.466 608.218 -190.668 541.407 -271.312 485.367C-349.032 431.366 -417.312 393.111 -502.263 361.944C-598.54 326.62 -723.062 317.04 -844.097 316.11C-971.866 315.126 -1080.42 306.998 -1182.32 337.553" stroke="#13AE67" stroke-width="0.864782" stroke-miterlimit="10"/>
<path d="M1176.58 1265.79C1158.05 1287.75 1113.13 1289.35 1063.18 1262.78C1028.15 1244.15 994.126 1211.6 954.757 1190.33C908.712 1165.45 863.312 1132.91 809.93 1103.96C714.577 1052.25 613.305 995.868 520.154 937.978C425.506 879.16 331.469 827.741 238.09 784.065C156.25 745.786 67.3052 720.426 -13.658 665.384C-110.522 599.53 -192.89 533.61 -275.674 480.123C-355.704 428.416 -426.525 394.039 -512.754 366.24C-608.718 335.296 -731.608 328.538 -851.769 326.672C-979.167 324.69 -1087.35 311.431 -1190.31 338.284" stroke="#13AE67" stroke-width="0.864782" stroke-miterlimit="10"/>
<path d="M1191.71 1260.04C1170.02 1284.51 1121.57 1288.07 1067.96 1262.12C1030.9 1244.18 995.194 1211.76 953.95 1191.23C906.068 1167.41 858.72 1135.69 804.052 1107.05C705.253 1055.29 601.672 997.246 506.755 936.656C413.295 876.994 321.191 823.559 229.398 777.821C150.611 738.561 64.5884 711.883 -14.1649 657.456C-110.551 590.839 -195.107 525.831 -280.026 474.887C-362.37 425.482 -435.707 394.918 -523.232 370.54C-618.858 343.912 -740.142 340.04 -859.43 337.241C-986.45 334.257 -1094.26 315.868 -1198.28 339.019" stroke="#13AE67" stroke-width="0.864782" stroke-miterlimit="10"/>
<path d="M1206.81 1254.29C1181.96 1281.25 1129.98 1286.74 1072.72 1261.46C1033.62 1244.2 996.242 1211.91 953.127 1192.14C903.404 1169.34 854.108 1138.47 798.155 1110.13C695.902 1058.35 589.988 998.647 493.344 935.324C401.048 874.846 310.887 819.42 220.699 771.566C144.949 731.375 61.8828 703.319 -14.6756 649.513C-110.576 582.118 -197.333 518.051 -284.379 469.633C-369.048 422.539 -444.873 395.706 -533.71 374.828C-628.977 352.439 -748.676 351.521 -867.089 347.795C-993.742 343.811 -1101.17 320.295 -1206.25 339.745" stroke="#13AE67" stroke-width="0.864782" stroke-miterlimit="10"/>
<path d="M1221.93 1248.54C1193.92 1278.01 1138.37 1285.37 1077.5 1260.8C1036.34 1244.19 997.301 1212.04 952.315 1193.04C900.75 1171.27 849.501 1141.27 792.266 1113.22C686.555 1061.43 578.277 1000.09 479.937 933.997C388.78 872.729 300.563 815.337 211.998 765.317C139.268 724.24 59.1834 694.742 -15.1868 641.584C-110.59 573.386 -199.562 510.286 -288.74 464.393C-375.732 419.621 -454.047 396.439 -544.199 379.128C-639.113 360.903 -757.226 363.01 -874.759 358.36C-1001.04 353.365 -1108.09 324.735 -1214.24 340.48" stroke="#13AE67" stroke-width="0.864782" stroke-miterlimit="10"/>
<path d="M1237.05 1242.79C1205.88 1274.76 1146.76 1283.97 1082.28 1260.14C1039.04 1244.16 998.362 1212.17 951.507 1193.95C898.095 1173.19 844.907 1144.07 786.389 1116.32C677.217 1064.53 566.544 1001.57 466.546 932.673C376.501 870.635 290.232 811.316 203.313 759.071C133.574 717.156 56.5108 686.158 -15.6842 633.65C-110.574 564.639 -201.778 502.532 -293.08 459.147C-382.4 416.704 -463.211 397.091 -554.668 383.423C-649.235 369.291 -765.754 374.491 -882.411 368.924C-1008.32 362.914 -1115 329.169 -1222.21 341.215" stroke="#13AE67" stroke-width="0.864782" stroke-miterlimit="10"/>
<path d="M1252.17 1237.05C1217.83 1271.51 1155.11 1282.54 1087.05 1259.47C1041.71 1244.11 999.414 1212.28 950.689 1194.86C895.429 1175.09 840.297 1146.88 780.495 1119.4C667.862 1067.65 554.763 1003.08 453.135 931.344C364.176 868.553 279.84 807.339 194.607 752.821C127.835 710.108 53.8271 677.55 -16.204 625.716C-110.564 555.87 -204.021 494.785 -297.445 453.905C-389.091 413.801 -472.414 397.671 -565.154 387.719C-659.398 377.608 -774.298 385.969 -890.084 379.483C-1015.62 372.455 -1121.92 333.599 -1230.2 341.939" stroke="#13AE67" stroke-width="0.864782" stroke-miterlimit="10"/>
<path d="M1267.29 1231.3C1229.8 1268.27 1163.45 1281.1 1091.83 1258.82C1044.38 1244.06 1000.47 1212.39 949.882 1195.76C892.766 1176.99 835.702 1149.7 774.614 1122.49C658.515 1070.78 542.955 1004.62 439.738 930.021C351.84 866.494 269.413 803.421 185.921 746.578C122.077 703.109 51.1774 668.944 -16.7049 617.79C-110.517 547.096 -206.236 487.055 -301.789 448.667C-395.761 410.917 -481.631 398.182 -575.626 392.021C-669.578 385.868 -782.83 397.448 -897.739 390.055C-1022.9 382.002 -1128.83 338.043 -1238.17 342.682" stroke="#13AE67" stroke-width="0.864782" stroke-miterlimit="10"/>
<path d="M1282.41 1225.55C1241.75 1265.02 1171.78 1279.63 1096.61 1258.16C1047.02 1243.99 1001.51 1212.49 949.07 1196.67C890.098 1178.88 831.099 1152.52 768.733 1125.58C649.172 1073.93 531.102 1006.19 426.338 928.691C339.478 864.441 258.929 799.551 177.229 740.323C116.273 696.134 48.5347 660.31 -17.2091 609.847C-110.455 538.279 -208.461 479.319 -306.138 443.417C-402.433 408.022 -490.894 398.607 -586.099 396.313C-679.799 394.054 -791.361 408.911 -905.393 400.611C-1030.19 391.528 -1135.74 342.473 -1246.13 343.41" stroke="#13AE67" stroke-width="0.864782" stroke-miterlimit="10"/>
<path d="M1297.52 1219.8C1253.7 1261.77 1180.08 1278.15 1101.37 1257.49C1049.64 1243.91 1002.54 1212.58 948.244 1197.57C887.401 1180.76 826.484 1155.36 762.831 1128.67C639.803 1077.09 519.198 1007.79 412.922 927.364C327.074 862.396 248.357 795.736 168.519 734.074C110.405 689.191 45.891 651.673 -17.733 601.915C-110.385 529.452 -210.696 471.598 -310.505 438.172C-409.123 405.147 -500.223 398.972 -596.595 400.609C-690.095 402.195 -799.914 420.375 -913.072 411.176C-1037.5 401.061 -1142.67 346.909 -1254.13 344.145" stroke="#13AE67" stroke-width="0.864782" stroke-miterlimit="10"/>
<path d="M1312.63 1214.06C1265.66 1258.52 1188.36 1276.67 1106.14 1256.83C1052.26 1243.83 1003.57 1212.66 947.433 1198.48C884.721 1182.63 821.883 1158.19 756.95 1131.76C630.46 1080.26 507.266 1009.42 399.524 926.034C314.663 860.362 237.725 791.957 159.826 727.823C104.499 682.272 43.2764 643.019 -18.2382 593.976C-110.274 520.595 -212.912 463.881 -314.855 432.925C-415.792 402.272 -509.585 399.281 -607.071 404.898C-700.427 410.279 -808.449 431.826 -920.729 421.731C-1044.78 410.577 -1149.58 351.333 -1262.1 344.866" stroke="#13AE67" stroke-width="0.864782" stroke-miterlimit="10"/>
<path d="M1327.77 1208.31C1277.63 1255.27 1196.65 1275.17 1110.93 1256.17C1054.87 1243.74 1004.61 1212.74 946.637 1199.38C882.043 1184.5 817.3 1161.03 751.077 1134.85C621.123 1083.46 495.304 1011.08 386.137 924.711C302.245 858.339 227.014 788.228 151.15 721.579C98.5626 675.377 40.6887 634.364 -18.7286 586.049C-110.121 511.73 -215.111 456.186 -319.19 427.69C-422.44 399.421 -518.996 399.543 -617.53 409.205C-710.801 418.348 -816.966 443.292 -928.371 432.308C-1052.05 420.108 -1156.47 355.781 -1270.06 345.612" stroke="#13AE67" stroke-width="0.864782" stroke-miterlimit="10"/>
<path d="M1342.87 1202.56C1289.57 1252.02 1204.89 1273.67 1115.69 1255.51C1057.45 1243.65 1005.63 1212.82 945.808 1200.29C879.333 1186.36 812.687 1163.88 745.174 1137.93C611.756 1086.66 483.27 1012.77 372.714 923.383C289.764 856.318 216.168 784.532 142.433 715.33C92.5184 668.482 38.0816 625.694 -19.2601 578.116C-109.981 502.835 -217.343 448.489 -323.569 422.443C-429.129 396.564 -528.508 399.756 -628.038 413.498C-721.285 426.372 -825.531 454.743 -936.06 442.865C-1059.37 429.617 -1163.41 360.215 -1278.06 346.341" stroke="#13AE67" stroke-width="0.864782" stroke-miterlimit="10"/>
<path d="M1357.98 1196.81C1301.52 1248.77 1213.13 1272.16 1120.46 1254.84C1060.03 1243.55 1006.64 1212.88 944.988 1201.19C876.623 1188.22 808.085 1166.73 739.285 1141.02C602.408 1089.87 471.205 1014.47 359.311 922.05C277.283 854.297 205.239 780.855 133.738 709.072C86.4364 661.583 35.5075 617.006 -19.7671 570.171C-109.775 493.904 -219.545 440.783 -327.921 417.189C-435.782 393.705 -538.055 399.922 -638.518 417.785C-731.807 434.369 -834.069 466.177 -943.722 453.417C-1066.65 439.112 -1170.33 364.636 -1286.03 347.061" stroke="#13AE67" stroke-width="0.864782" stroke-miterlimit="10"/>
<path d="M1373.11 1191.06C1313.49 1245.53 1221.38 1270.65 1125.25 1254.18C1062.62 1243.46 1007.67 1212.96 944.189 1202.1C873.929 1190.08 803.505 1169.59 733.41 1144.11C593.075 1093.1 459.106 1016.21 345.918 920.726C264.783 852.284 194.205 777.207 125.051 702.825C80.3007 654.69 32.9574 608.319 -20.2642 562.243C-109.528 484.962 -221.732 433.106 -332.261 411.95C-442.42 390.866 -547.649 400.08 -648.98 422.084C-742.367 442.364 -842.589 477.442 -951.367 463.985C-1073.93 448.419 -1177.22 369.075 -1294 347.798" stroke="#13AE67" stroke-width="0.864782" stroke-miterlimit="10"/>
<path d="M1388.22 1185.32C1325.45 1242.29 1229.6 1269.14 1130.02 1253.53C1065.18 1243.37 1008.68 1213.02 943.373 1203.01C871.21 1191.94 798.909 1172.45 727.519 1147.2C583.727 1096.34 446.949 1017.98 332.514 919.403C252.256 850.271 183.037 773.564 116.353 696.581C74.0806 647.783 30.4158 599.629 -20.7752 554.311C-109.248 475.99 -223.938 425.605 -336.617 406.71C-449.081 388.211 -557.323 400.215 -659.464 426.384C-753.007 450.348 -851.125 488.937 -959.032 474.551C-1081.21 457.982 -1184.14 373.51 -1301.98 348.535" stroke="#13AE67" stroke-width="0.864782" stroke-miterlimit="10"/>
<path d="M1403.36 1179.57C1337.42 1239.04 1237.84 1267.62 1134.82 1252.87C1067.76 1243.26 1009.71 1212.99 942.583 1203.91C868.517 1193.68 794.313 1175.43 721.659 1150.29C574.348 1099.81 434.778 1019.76 319.135 918.074C239.734 848.257 171.779 769.913 107.684 690.333C67.8324 640.849 27.9242 590.93 -21.2579 546.38C-108.898 466.992 -226.093 417.841 -340.942 401.466C-455.685 385.292 -567.019 400.336 -669.918 430.681C-763.675 458.33 -859.632 500.432 -966.674 485.115C-1088.47 467.539 -1191.04 377.95 -1309.93 349.27" stroke="#13AE67" stroke-width="0.864782" stroke-miterlimit="10"/>
<path d="M1418.47 1173.82C1349.37 1235.78 1246.03 1266.1 1139.59 1252.2C1070.3 1243.16 1010.7 1213.15 941.759 1204.82C865.78 1195.63 789.741 1178.19 715.761 1153.38C565.061 1102.84 422.525 1021.56 305.721 916.748C227.151 846.241 160.36 766.25 98.9779 684.081C61.4741 633.881 25.4145 582.223 -21.7783 538.444C-108.53 457.958 -228.282 410.076 -345.308 396.223C-462.334 382.37 -576.803 400.448 -680.408 434.979C-774.43 466.312 -868.173 511.925 -974.344 495.679C-1095.77 477.098 -1197.96 382.385 -1317.92 349.999" stroke="#13AE67" stroke-width="0.864782" stroke-miterlimit="10"/>
<path d="M875.485 1215.8C911.866 1112.14 903.44 991.456 852.125 881.221C837.528 849.858 818.65 818.274 789.025 795.665C703.419 730.338 580.161 754.807 487.816 760.167C376.363 766.637 265.306 775.599 152.162 773.775C88.6402 772.753 16.2965 764.855 -30.3714 720.144C-77.6283 674.866 -79.7102 610.588 -86.0678 552.884C-93.4759 485.644 -111.657 416.655 -151.733 354.986C-191.806 293.322 -255.99 239.564 -330.493 218.716C-388.833 202.387 -448.575 206.969 -504.776 216.03C-652.446 239.834 -789.275 293.718 -902.719 372.732" stroke="#13AE67" stroke-width="0.864782" stroke-miterlimit="10"/>
<path d="M880.087 1212.47C915.296 1112.16 903.376 996.055 850.485 885.079C835.717 854.094 817.056 822.865 787.936 800.374C703.659 735.209 583.199 756.922 491.719 760.97C394.183 765.286 296.564 772.221 196.525 771.908C184.219 771.887 171.893 771.762 159.542 771.508C96.6305 770.228 25.1865 762.361 -21.394 718.897C-68.5981 674.878 -72.069 612.508 -79.6428 556.498C-88.5648 491.221 -107.867 424.256 -148.265 364.312C-188.832 304.345 -252.638 251.95 -326.287 231.24C-376.334 217.158 -427.322 218.171 -476.13 223.903C-483.686 224.785 -491.169 225.828 -498.618 226.859C-646.408 247.313 -779.259 293.822 -889.044 370.29" stroke="#13AE67" stroke-width="0.864782" stroke-miterlimit="10"/>
<path d="M884.717 1209.16C918.753 1112.19 903.357 1000.66 848.877 888.949C833.946 858.337 815.492 827.471 786.873 805.093C703.925 740.088 586.267 759.053 495.646 761.787C399.745 764.679 303.349 770.807 203.565 769.824C191.38 769.742 179.174 769.559 166.944 769.259C104.644 767.721 34.0946 759.882 -12.3985 717.665C-59.5566 674.907 -64.4144 614.441 -73.2062 560.128C-83.6439 496.818 -104.058 431.871 -144.791 373.652C-185.85 315.377 -249.274 264.353 -322.076 243.782C-371.644 229.763 -422.043 230.239 -470.239 235.157C-477.704 235.911 -485.089 236.858 -492.455 237.707C-640.431 254.788 -769.235 293.95 -875.364 367.865" stroke="#13AE67" stroke-width="0.864782" stroke-miterlimit="10"/>
<path d="M889.328 1205.84C922.192 1112.22 903.342 1005.27 847.252 892.818C832.17 862.58 813.913 832.073 785.798 809.813C704.179 744.969 589.335 761.196 499.562 762.602C405.31 764.08 310.09 769.162 210.591 767.741C198.524 767.572 186.444 767.358 174.337 767.007C112.646 765.211 42.997 757.403 -3.41058 716.437C-50.516 674.938 -56.6463 616.378 -66.7773 563.763C-78.5879 502.412 -100.099 439.416 -141.319 382.999C-182.718 326.341 -245.917 276.759 -317.863 256.333C-366.952 242.377 -416.76 242.322 -464.35 246.418C-471.729 247.041 -479.01 247.893 -486.291 248.563C-634.508 262.244 -759.212 294.08 -861.678 365.451" stroke="#13AE67" stroke-width="0.864782" stroke-miterlimit="10"/>
<path d="M893.935 1202.52C925.62 1112.24 903.337 1009.88 845.617 896.677C830.391 866.811 812.324 836.665 784.714 814.523C704.426 749.836 592.409 763.331 503.469 763.406C410.878 763.482 316.845 767.663 217.609 765.648C205.658 765.405 193.699 765.144 181.715 764.742C120.633 762.692 51.8806 754.909 5.56047 715.19C-41.497 674.947 -48.9786 618.29 -60.3633 567.374C-73.6455 507.983 -96.266 446.987 -137.86 392.319C-179.704 337.328 -242.569 289.141 -313.665 268.85C-362.276 254.957 -411.497 254.369 -458.473 257.648C-465.761 258.142 -472.946 258.892 -480.144 259.391C-628.664 269.642 -749.209 294.185 -848.014 363.006" stroke="#13AE67" stroke-width="0.864782" stroke-miterlimit="10"/>
<path d="M898.548 1199.2C929.062 1112.26 903.353 1014.49 843.994 900.54C828.628 871.048 810.745 841.264 783.641 819.237C704.682 754.711 595.505 765.486 507.386 764.219C416.463 762.91 323.616 766.18 224.638 763.56C212.808 763.246 200.97 762.937 189.109 762.484C128.638 760.177 60.7851 752.424 14.5505 713.956C-32.459 674.97 -41.2921 620.215 -53.9323 571.003C-68.6842 513.567 -92.4249 454.57 -134.391 401.657C-176.685 348.331 -239.215 301.54 -309.46 281.39C-357.589 267.557 -406.223 266.436 -452.592 268.898C-459.793 269.261 -466.885 269.912 -473.992 270.234C-622.871 277.019 -739.198 294.303 -834.342 360.573" stroke="#13AE67" stroke-width="0.864782" stroke-miterlimit="10"/>
<path d="M903.154 1195.87C932.496 1112.28 903.384 1019.09 842.357 904.402C826.859 875.278 809.154 845.859 782.555 823.95C704.924 759.584 598.594 767.647 511.291 765.026C422.049 762.344 330.371 764.689 231.653 761.469C219.943 761.088 208.229 760.725 196.488 760.228C136.627 757.664 69.674 749.941 23.5221 712.718C-23.4366 674.995 -33.6239 622.136 -47.5197 574.627C-63.746 519.144 -88.6044 462.153 -130.936 410.994C-173.684 359.331 -235.869 313.935 -305.268 293.929C-352.914 280.16 -400.961 278.506 -446.72 280.15C-453.83 280.383 -460.829 280.926 -467.843 281.081C-617.136 284.364 -729.188 294.429 -820.677 358.148" stroke="#13AE67" stroke-width="0.864782" stroke-miterlimit="10"/>
<path d="M907.75 1192.55C935.918 1112.31 903.429 1023.69 840.717 908.262C825.097 879.512 807.514 850.498 781.464 828.661C705.033 764.581 601.698 769.821 515.197 765.835C427.649 761.8 337.135 763.208 238.67 759.381C227.08 758.928 215.488 758.518 203.87 757.97C144.617 755.151 78.5612 747.453 32.5014 711.48C-14.4093 675.014 -25.9508 624.051 -41.0927 578.25C-58.7934 524.72 -84.772 469.729 -127.47 420.326C-170.68 370.328 -232.514 326.329 -301.06 306.462C-348.226 292.756 -395.67 290.654 -440.834 291.389C-447.857 291.501 -454.766 291.929 -461.688 291.917C-611.446 291.653 -719.175 294.539 -807.004 355.711" stroke="#13AE67" stroke-width="0.864782" stroke-miterlimit="10"/>
<path d="M912.382 1189.24C939.377 1112.33 903.523 1028.3 839.106 912.128C823.368 883.744 805.947 855.104 780.407 833.375C705.287 769.467 604.839 772.008 519.129 766.646C433.279 761.275 343.921 761.738 245.713 757.291C234.243 756.772 222.774 756.31 211.274 755.709C152.632 752.632 87.4759 744.965 41.497 710.24C-5.3611 675.033 -18.2662 625.962 -34.6562 581.873C-53.8341 530.29 -80.934 477.312 -123.989 429.658C-167.659 381.323 -229.148 338.72 -296.842 318.995C-343.53 305.352 -390.383 302.723 -434.936 302.634C-441.87 302.622 -448.693 302.932 -455.515 302.758C-605.793 298.893 -709.144 294.658 -793.313 353.28" stroke="#13AE67" stroke-width="0.864782" stroke-miterlimit="10"/>
<path d="M916.988 1185.91C942.806 1112.35 903.616 1032.89 837.476 915.989C821.624 887.972 804.355 859.704 779.327 838.087C705.525 774.353 607.97 774.205 523.041 767.453C438.904 760.762 350.694 760.262 252.736 755.201C241.385 754.614 230.039 754.101 218.662 753.449C160.635 750.117 96.3693 742.476 50.4824 709C3.67048 675.054 -10.5916 627.873 -28.2297 585.495C-48.8895 535.858 -77.1134 484.886 -120.52 438.992C-164.662 392.321 -225.789 351.117 -292.634 331.527C-338.841 317.944 -385.108 314.796 -429.048 313.879C-435.896 313.736 -442.629 313.931 -449.355 313.596C-600.193 306.077 -699.126 294.77 -779.632 350.848" stroke="#13AE67" stroke-width="0.864782" stroke-miterlimit="10"/>
<path d="M921.589 1182.6C946.235 1112.38 903.717 1037.49 835.834 919.859C819.875 892.208 802.756 864.31 778.235 842.808C705.747 779.242 611.102 776.432 526.94 768.269C444.523 760.28 357.45 758.802 259.748 753.115C248.521 752.463 237.288 751.895 226.037 751.198C168.619 747.612 105.253 740.001 59.4485 707.77C12.6892 675.084 -2.93925 629.787 -21.8207 589.124C-43.9671 541.429 -73.3142 492.474 -117.073 448.331C-161.688 403.324 -222.458 363.516 -288.45 344.068C-334.178 330.547 -379.856 326.873 -423.189 325.13C-429.946 324.858 -436.598 324.933 -443.227 324.444C-594.671 313.215 -689.137 294.899 -765.986 348.424" stroke="#13AE67" stroke-width="0.864782" stroke-miterlimit="10"/>
<path d="M926.217 1179.27C949.691 1112.4 903.87 1042.08 834.225 923.721C818.168 896.431 801.185 868.91 777.177 847.521C706.007 784.125 614.274 778.662 530.874 769.076C450.186 759.804 364.243 757.34 266.791 751.025C255.684 750.306 244.574 749.686 233.446 748.938C176.638 745.095 114.167 737.513 68.4551 706.531C21.7437 675.101 4.74698 631.694 -15.3731 592.748C-39.0089 546.989 -69.4857 500.053 -113.582 457.667C-158.674 414.32 -219.076 375.909 -284.219 356.607C-329.468 343.15 -374.556 338.948 -417.278 336.381C-423.948 335.978 -430.514 335.937 -437.039 335.291C-589.126 320.281 -679.092 295.024 -752.281 345.998" stroke="#13AE67" stroke-width="0.864782" stroke-miterlimit="10"/>
<path d="M930.823 1175.95C953.122 1112.43 904.021 1046.67 832.59 927.581C816.438 900.654 799.593 873.507 776.091 852.232C706.237 789 617.427 780.91 534.778 769.885C455.825 759.357 371.004 755.884 273.806 748.937C262.817 748.151 251.831 747.48 240.821 746.679C184.624 742.578 123.108 734.947 77.4211 705.293C30.8179 675.043 12.3881 633.6 -8.96128 596.375C-34.0978 552.551 -65.6949 507.639 -110.13 467C-155.708 425.32 -215.74 388.302 -280.029 369.138C-324.799 355.744 -369.301 351.013 -411.412 347.623C-417.993 347.094 -424.478 346.919 -430.902 346.126C-583.658 327.269 -669.097 295.132 -738.626 343.56" stroke="#13AE67" stroke-width="0.864782" stroke-miterlimit="10"/>
<path d="M935.426 1172.63C956.553 1112.45 904.19 1051.25 830.956 931.443C814.717 904.877 797.999 878.103 775.008 856.945C706.474 793.88 620.591 783.177 538.691 770.695C461.481 758.929 377.78 754.43 280.831 746.846C269.967 745.994 259.098 745.271 248.212 744.418C192.623 740.063 132.006 732.453 86.4092 704.052C39.8558 675.056 20.0418 635.498 -2.53032 599.992C-29.1675 558.105 -61.8896 515.213 -106.656 476.33C-152.724 436.315 -212.376 400.694 -275.818 381.67C-320.107 368.334 -364.027 363.078 -405.522 358.867C-412.016 358.207 -418.421 357.903 -424.742 356.967C-578.194 334.189 -659.08 295.251 -724.949 341.129" stroke="#13AE67" stroke-width="0.864782" stroke-miterlimit="10"/>
<path d="M940.037 1169.31C959.986 1112.47 904.393 1055.82 829.324 935.308C812.998 909.102 796.412 882.704 773.927 861.66C706.715 798.757 623.764 785.466 542.6 771.505C467.136 758.521 384.553 752.987 287.851 744.758C277.104 743.844 266.361 743.065 255.595 742.165C200.617 737.553 140.901 729.969 95.3859 702.817C48.8804 675.077 27.6841 637.402 3.88745 603.62C-24.2598 563.663 -58.106 522.802 -103.2 485.667C-149.765 447.318 -209.031 413.094 -271.626 394.209C-315.436 380.936 -358.77 375.151 -399.654 370.116C-406.057 369.328 -412.382 368.893 -418.598 367.812C-572.76 341.033 -649.073 295.372 -711.288 338.702" stroke="#13AE67" stroke-width="0.864782" stroke-miterlimit="10"/>
<path d="M944.649 1165.99C963.426 1112.49 904.612 1060.38 827.699 939.169C811.299 913.322 794.833 887.298 772.852 866.373C706.958 803.63 626.95 787.778 546.516 772.316C472.805 758.143 391.33 751.549 294.877 742.672C284.254 741.692 273.624 740.858 262.986 739.909C208.618 735.039 149.8 727.481 104.372 701.585C57.9168 675.098 35.3296 639.312 10.3149 607.25C-19.349 569.227 -54.3145 530.399 -99.73 495.01C-146.795 458.335 -205.676 425.496 -267.412 406.752C-310.744 393.542 -353.493 387.228 -393.758 381.368C-400.075 380.448 -406.322 379.874 -412.431 378.656C-567.313 347.801 -639.05 295.495 -697.599 336.276" stroke="#13AE67" stroke-width="0.864782" stroke-miterlimit="10"/>
<path d="M949.254 1162.67C966.858 1112.52 904.848 1064.93 826.063 943.032C809.586 917.536 793.237 891.896 771.767 871.087C707.196 808.507 630.124 790.116 550.422 773.125C478.466 757.786 398.1 750.115 301.895 740.58C291.394 739.539 280.887 738.643 270.365 737.645C216.606 732.521 158.684 724.987 113.344 700.339C66.9367 675.109 42.9494 641.205 16.7299 610.863C-14.4573 574.774 -50.5422 537.979 -96.2703 504.33C-143.84 469.328 -202.325 437.875 -263.216 419.274C-306.062 406.126 -348.231 399.28 -387.887 392.6C-394.117 391.549 -400.28 390.838 -406.29 389.486C-561.889 354.464 -629.05 295.598 -683.941 333.833" stroke="#13AE67" stroke-width="0.864782" stroke-miterlimit="10"/>
<path d="M953.869 1159.35C970.301 1112.54 905.117 1069.48 824.442 946.895C807.897 921.756 791.661 896.491 770.697 875.797C707.457 813.374 633.321 792.472 554.344 773.929C484.142 757.449 404.889 748.682 308.927 738.487C298.549 737.385 288.161 736.432 277.763 735.383C224.614 730.002 167.582 722.493 122.338 699.101C75.9761 675.131 50.5885 643.111 23.1688 614.489C-9.55282 580.334 -46.7524 545.575 -92.7932 513.667C-140.877 480.341 -198.963 450.271 -259.003 431.813C-301.369 418.727 -342.951 411.348 -381.993 403.851C-388.137 402.669 -394.219 401.814 -400.12 400.332C-556.43 361.06 -619.019 295.725 -670.253 331.407" stroke="#13AE67" stroke-width="0.864782" stroke-miterlimit="10"/>
<path d="M958.501 1156.04C973.761 1112.57 905.425 1074.02 822.83 950.767C806.22 925.979 790.096 901.095 769.637 880.52C707.72 818.255 636.521 794.866 558.273 774.75C489.825 757.152 411.682 747.274 315.969 736.407C305.707 735.241 295.445 734.233 285.167 733.137C232.629 727.498 176.492 720.018 131.335 697.873C85.0215 675.16 58.2206 645.026 29.6073 618.123C-4.65725 585.908 -42.9621 553.189 -89.3118 523.013C-137.913 491.373 -195.593 462.68 -254.778 444.359C-296.666 431.337 -337.666 423.423 -376.089 415.11C-382.142 413.799 -388.146 412.795 -393.944 411.184C-550.947 367.575 -608.985 295.851 -656.56 328.987" stroke="#13AE67" stroke-width="0.864782" stroke-miterlimit="10"/>
<path d="M963.093 1152.71C977.175 1112.59 905.712 1078.54 821.186 954.627C804.513 930.184 788.497 905.688 768.542 885.231C707.959 823.119 639.689 797.279 562.17 775.556C495.472 756.863 418.44 745.855 322.976 734.315C312.837 733.088 302.695 732.024 292.54 730.876C240.61 724.983 185.371 717.528 140.305 696.631C94.0333 675.177 65.8237 646.933 36.0206 621.741C0.209345 591.473 -39.2083 560.785 -85.8603 532.341C-134.98 502.389 -192.256 475.067 -250.59 456.889C-291.999 443.929 -332.41 435.478 -370.225 426.349C-376.192 424.907 -382.109 423.758 -387.811 422.021C-545.476 373.987 -598.995 295.965 -642.91 326.551" stroke="#13AE67" stroke-width="0.864782" stroke-miterlimit="10"/>
<path d="M967.688 1149.39C980.598 1112.61 906.032 1083.05 819.539 958.485C802.809 934.389 786.897 910.279 767.441 889.938C708.189 827.983 642.838 799.714 566.065 776.359C501.115 756.598 425.205 744.441 329.982 732.221C319.965 730.933 309.938 729.809 299.911 728.613C248.592 722.462 194.246 715.039 149.268 695.39C103.043 675.192 73.4131 648.85 42.4239 625.362C5.05931 597.042 -35.4636 568.395 -82.4123 541.67C-132.054 513.411 -188.919 487.459 -246.406 469.42C-287.333 456.519 -327.162 447.533 -364.361 437.592C-370.241 436.019 -376.073 434.719 -381.671 432.86C-539.959 380.311 -588.996 296.078 -629.252 324.118" stroke="#13AE67" stroke-width="0.864782" stroke-miterlimit="10"/>
<path d="M972.305 1146.07C984.04 1112.63 906.391 1087.56 817.919 962.349C801.137 938.602 785.323 914.876 766.372 894.653C708.454 832.848 646.01 802.188 569.987 777.169C506.773 756.364 431.988 743.04 337.016 730.13C327.119 728.785 317.215 727.6 307.306 726.35C256.597 719.942 203.144 712.551 158.26 694.147C112.08 675.214 81.0307 650.77 48.8574 628.982C9.93859 602.625 -31.6906 576.007 -78.936 551.002C-129.109 524.446 -185.558 499.85 -242.191 481.95C-282.64 469.112 -321.88 459.589 -358.47 448.832C-364.259 447.131 -370.01 445.673 -375.509 443.693C-534.376 386.545 -578.973 296.192 -615.568 321.681" stroke="#13AE67" stroke-width="0.864782" stroke-miterlimit="10"/>
<path d="M976.935 1142.75C987.499 1112.66 906.789 1092.04 816.306 966.215C799.475 942.81 783.758 919.471 765.31 899.37C708.726 837.714 649.178 804.697 573.914 777.985C512.425 756.158 438.776 741.654 344.053 728.048C334.278 726.642 324.494 725.399 314.709 724.099C264.609 717.437 212.05 710.074 167.258 692.92C121.125 675.248 88.6525 652.71 55.3034 632.615C14.822 608.226 -27.9107 583.645 -75.4519 560.345C-126.153 535.497 -182.183 512.252 -237.966 494.497C-277.935 481.722 -316.589 471.656 -352.565 460.092C-358.268 458.259 -363.932 456.646 -369.329 454.552C-528.715 392.718 -568.937 296.329 -601.871 319.268" stroke="#13AE67" stroke-width="0.864782" stroke-miterlimit="10"/>
<path d="M981.546 1139.43C990.936 1112.68 907.193 1096.51 814.681 970.079C797.801 947.014 782.185 924.065 764.234 904.085C708.992 842.576 652.314 807.232 577.83 778.794C518.056 755.97 445.557 740.268 351.08 725.96C341.425 724.497 331.763 723.193 322.099 721.845C272.609 714.925 220.942 707.599 176.241 691.684C130.152 675.276 96.255 654.648 61.7273 636.242C19.686 613.827 -24.1528 591.276 -71.9849 569.684C-123.214 546.555 -178.826 524.653 -233.762 507.037C-273.253 494.326 -311.321 483.716 -346.686 471.343C-352.303 469.379 -357.874 467.609 -363.179 465.396C-523.016 398.798 -558.928 296.447 -588.204 316.839" stroke="#13AE67" stroke-width="0.864782" stroke-miterlimit="10"/>
<path d="M986.143 1136.11C994.356 1112.7 907.606 1100.96 813.036 973.938C796.116 951.209 780.588 928.653 763.14 908.795C709.243 847.435 655.414 809.798 581.728 779.598C523.651 755.798 452.316 738.882 358.09 723.863C348.555 722.343 339.015 720.978 329.474 719.579C280.599 712.403 229.825 705.109 185.214 690.437C139.168 675.295 103.853 656.589 68.1407 639.858C24.5452 619.43 -20.4065 598.911 -68.5316 579.006C-120.292 557.603 -175.488 537.035 -229.571 519.558C-268.581 506.905 -306.06 495.759 -340.813 482.572C-346.341 480.472 -351.823 478.544 -357.034 476.218C-517.257 404.778 -548.927 296.546 -574.542 314.389" stroke="#13AE67" stroke-width="0.864782" stroke-miterlimit="10"/>
<path d="M990.743 1132.79C997.785 1112.72 908.048 1105.4 811.4 977.802C794.439 955.409 779.004 933.248 762.056 913.506C709.502 852.29 658.493 812.394 585.633 780.408C529.234 755.65 459.079 737.512 365.105 721.776C355.691 720.198 346.275 718.768 336.85 717.319C288.584 709.891 238.685 702.702 194.181 689.2C148.167 675.397 111.443 658.543 74.551 643.479C29.3976 625.046 -16.6584 606.552 -65.0783 588.34C-117.368 568.669 -172.146 549.43 -225.381 532.093C-263.912 519.503 -300.803 507.81 -334.947 493.817C-340.384 491.589 -345.777 489.497 -350.895 487.063C-511.415 410.708 -538.924 296.667 -560.885 311.961" stroke="#13AE67" stroke-width="0.864782" stroke-miterlimit="10"/>
<path d="M995.367 1129.47C1001.24 1112.75 908.54 1109.82 809.781 981.667C792.782 959.606 777.438 937.845 760.988 918.223C709.786 857.155 661.561 815.025 589.556 781.219C534.815 755.518 465.861 736.15 372.141 719.686C362.851 718.053 353.548 716.557 344.251 715.06C296.595 707.373 247.596 700.215 203.18 687.96C157.211 675.418 119.075 660.498 80.9906 647.102C34.2914 630.674 -12.8822 614.21 -61.5959 597.675C-114.413 579.747 -168.779 561.825 -221.157 544.632C-259.204 532.107 -295.508 519.867 -329.044 505.068C-334.394 502.709 -339.686 500.455 -344.72 497.908C-505.448 416.57 -528.893 296.79 -547.193 309.534" stroke="#13AE67" stroke-width="0.864782" stroke-miterlimit="10"/>
<path d="M999.979 1126.15C1004.67 1112.78 909.041 1114.23 808.156 985.535C791.123 963.808 775.863 942.437 759.913 922.941C710.063 862.011 664.593 817.686 593.478 782.034C540.373 755.413 472.643 734.801 379.172 717.603C370.001 715.917 360.822 714.357 351.646 712.812C304.601 704.868 256.497 697.738 212.166 686.734C166.25 675.451 126.696 662.474 87.4223 650.74C39.1755 636.322 -9.10892 621.885 -58.124 607.019C-111.463 590.846 -165.416 574.228 -216.947 557.174C-254.515 544.713 -290.226 531.928 -323.153 516.323C-328.416 513.829 -333.607 511.417 -338.558 508.756C-499.403 422.379 -518.872 296.912 -533.509 307.112" stroke="#13AE67" stroke-width="0.864782" stroke-miterlimit="10"/>
<path d="M1004.59 1122.83C1008.11 1112.8 909.565 1118.61 806.524 989.394C789.46 967.994 774.322 947.007 758.831 927.652C710.451 866.807 667.574 820.367 597.385 782.843C545.885 755.306 479.403 733.453 386.19 715.515C377.14 713.772 368.082 712.15 359.029 710.554C312.593 702.356 265.39 695.253 221.147 685.496C175.279 675.47 134.316 664.444 93.8462 654.361C44.0657 641.959 -5.33808 629.555 -54.6574 616.352C-108.521 601.938 -162.064 586.621 -212.744 569.709C-249.831 557.307 -284.927 543.93 -317.275 527.568C-322.442 524.937 -327.539 522.364 -332.405 519.6C-493.267 428.132 -508.863 297.034 -519.839 304.684" stroke="#13AE67" stroke-width="0.864782" stroke-miterlimit="10"/>
<path d="M1009.2 1119.51C1011.55 1112.82 910.124 1122.97 804.904 993.26C787.806 972.184 772.748 951.607 757.762 932.369C710.713 871.681 670.531 823.085 601.308 783.655C551.383 755.216 486.177 732.121 393.225 713.426C384.293 711.629 375.359 709.942 366.425 708.293C320.598 699.837 274.291 692.763 230.135 684.253C184.315 675.484 141.952 666.413 100.275 657.98C48.9643 647.6 -1.55705 637.226 -51.19 625.681C-105.565 613.036 -158.708 599.012 -208.54 582.24C-245.149 569.901 -279.657 555.991 -311.391 538.812C-316.472 536.049 -321.463 533.316 -326.25 530.437C-487.029 433.829 -498.845 297.147 -506.166 302.248" stroke="#13AE67" stroke-width="0.864782" stroke-miterlimit="10"/>
<path d="M1013.82 1116.19C1014.99 1112.85 910.703 1127.31 803.28 997.127C786.154 976.373 771.168 956.21 756.688 937.087C710.968 876.559 673.432 825.826 605.225 784.467C556.844 755.131 492.933 730.898 400.253 711.341C391.44 709.501 382.629 707.739 373.818 706.039C328.602 697.325 283.195 690.281 239.124 683.022C193.355 675.516 149.593 668.445 106.705 661.612C53.8692 653.314 2.22199 644.999 -47.717 635.026C-102.606 624.24 -155.345 611.418 -204.324 594.784C-240.453 582.508 -274.369 568.064 -305.499 550.066C-310.494 547.173 -315.375 544.272 -320.087 541.284C-480.673 439.499 -488.825 297.273 -492.484 299.819" stroke="#13AE67" stroke-width="0.864782" stroke-miterlimit="10"/>
<path d="M1018.43 1112.87C1018.43 1112.87 911.302 1131.62 801.648 1000.99C691.993 870.353 673.789 767.564 407.273 709.249C140.757 650.935 -125.289 668.8 -299.619 561.308C-473.948 453.816 -478.812 297.388 -478.812 297.388" stroke="#13AE67" stroke-width="0.864782" stroke-miterlimit="10"/>
<path d="M1144.03 1124.41C1145.1 1085.61 1112.31 1046.44 1072.57 1024.23C1032.82 1002.02 987.218 993.633 943.013 987.72C851.589 975.484 760.107 971.722 668.848 955.063C577.589 938.403 484.285 907.283 411.328 849.262C366.472 813.59 330.927 769.073 284.623 734.987C191.776 666.635 71.1785 650.071 -37.5833 609.922C-119.871 579.544 -134.286 533.94 -155.755 466.487C-176.595 401.007 -224.373 339.286 -287.344 296.492C-350.315 253.698 -427.905 230.227 -501.051 231.841" stroke="#13AE67" stroke-width="0.864782" stroke-miterlimit="10"/>
<path d="M1147.7 1120.64C1146.2 1083.05 1111.96 1044.6 1071.03 1023.17C1030.01 1001.74 983.291 993.596 937.917 987.432C846.105 975.028 754.162 970.074 663.366 951.65C572.825 933.465 481.188 900.629 408.18 842.582C363.476 807.037 327.536 763.232 281.178 729.629C188.284 662.277 68.4147 645.425 -39.8879 605.392C-121.68 575.162 -137.76 529.999 -160.379 463.335C-182.037 398.843 -229.43 337.644 -292.415 296.403C-355.218 255.144 -431.98 233.148 -504.579 235.011" stroke="#13AE67" stroke-width="0.864782" stroke-miterlimit="10"/>
<path d="M1151.34 1116.86C1147.29 1080.49 1111.59 1042.76 1069.47 1022.1C1027.19 1001.45 979.353 993.551 932.805 987.142C840.601 974.568 748.225 968.243 657.875 948.235C568.074 928.347 478.08 893.965 405.024 835.896C360.467 800.479 324.141 757.38 277.722 724.262C184.785 657.911 65.6446 640.773 -42.2052 600.858C-123.501 570.776 -141.463 526.092 -165.014 460.174C-187.691 396.703 -234.498 335.992 -297.5 296.299C-360.139 256.574 -436.073 236.052 -508.122 238.166" stroke="#13AE67" stroke-width="0.864782" stroke-miterlimit="10"/>
<path d="M1155 1113.08C1148.39 1077.93 1111.24 1040.91 1067.93 1021.03C1024.37 1001.16 975.422 993.51 927.705 986.85C835.113 974.108 742.292 966.508 652.39 944.815C563.327 923.324 474.981 887.303 401.875 829.205C357.471 793.914 320.754 751.53 274.275 718.897C181.29 653.545 62.8806 636.116 -44.5137 596.324C-125.314 566.39 -145.039 522.171 -169.647 457.015C-193.239 394.553 -239.657 334.477 -302.584 296.201C-365.143 258.147 -440.167 238.967 -511.666 241.332" stroke="#13AE67" stroke-width="0.864782" stroke-miterlimit="10"/>
<path d="M1158.66 1109.31C1149.5 1075.37 1110.89 1039.06 1066.39 1019.96C1021.57 1000.87 971.495 993.465 922.605 986.561C829.62 973.649 736.361 964.786 646.911 941.399C558.584 918.31 471.889 880.642 398.732 822.519C354.476 787.352 317.37 745.678 270.836 713.532C177.803 649.18 60.1222 631.463 -46.8129 591.788C-127.117 562.001 -148.599 518.246 -174.266 453.857C-198.756 392.406 -244.731 332.874 -307.653 296.1C-370.069 259.621 -444.239 241.876 -515.192 244.489" stroke="#13AE67" stroke-width="0.864782" stroke-miterlimit="10"/>
<path d="M1162.28 1105.53C1150.57 1072.81 1110.5 1037.22 1064.81 1018.9C1018.72 1000.58 967.529 993.426 917.463 986.272C824.086 973.19 730.393 963.066 641.384 937.983C553.802 913.303 468.743 873.981 395.541 815.831C351.436 780.795 313.937 739.829 267.349 708.166C174.273 644.815 57.3183 626.806 -49.1613 587.254C-128.97 557.615 -152.206 514.329 -178.934 450.7C-204.323 390.261 -249.853 331.271 -312.768 296.006C-375.036 261.107 -448.362 244.791 -518.767 247.659" stroke="#13AE67" stroke-width="0.864782" stroke-miterlimit="10"/>
<path d="M1165.96 1101.75C1151.69 1070.26 1110.19 1035.29 1063.29 1017.83C1015.95 1000.21 963.618 993.391 912.383 985.985C818.617 972.735 724.488 961.355 635.922 934.574C549.079 908.312 465.668 867.326 392.417 809.157C348.461 774.246 310.572 733.99 263.925 702.811C170.801 640.46 54.5749 622.164 -51.4454 582.727C-130.758 553.237 -155.738 510.421 -183.538 447.552C-209.816 388.129 -254.903 329.673 -317.823 295.919C-379.942 262.594 -452.423 247.717 -522.28 250.83" stroke="#13AE67" stroke-width="0.864782" stroke-miterlimit="10"/>
<path d="M1169.6 1097.97C1152.78 1067.69 1109.82 1033.43 1061.74 1016.76C1013.13 999.911 959.677 993.342 907.269 985.692C813.111 972.272 718.547 959.645 630.424 931.153C544.331 903.313 462.55 860.661 389.254 802.466C345.451 767.681 307.167 728.137 260.466 697.441C167.295 636.09 51.7974 617.506 -53.7656 578.19C-132.582 548.847 -159.296 506.505 -188.18 444.385C-215.337 385.979 -259.993 328.058 -322.915 295.809C-384.879 264.057 -456.523 250.616 -525.832 253.984" stroke="#13AE67" stroke-width="0.864782" stroke-miterlimit="10"/>
<path d="M1173.26 1094.2C1153.88 1065.14 1109.47 1031.58 1060.19 1015.7C1010.31 999.621 955.753 993.21 902.169 985.406C807.627 971.642 712.627 957.951 624.945 927.741C539.595 898.335 459.456 854.007 386.11 795.783C342.456 761.123 303.783 722.289 257.025 692.084C163.807 631.728 49.0389 612.857 -56.0713 573.658C-134.394 544.468 -162.839 502.596 -192.806 441.232C-220.834 383.84 -265.057 326.45 -327.988 295.719C-389.793 265.536 -460.599 253.536 -529.367 257.15" stroke="#13AE67" stroke-width="0.864782" stroke-miterlimit="10"/>
<path d="M1176.92 1090.43C1154.98 1062.58 1109.1 1029.73 1058.64 1014.63C1007.49 999.329 951.814 993.162 897.06 985.12C802.129 971.178 706.699 956.266 619.451 924.327C534.85 893.357 456.345 847.344 382.952 789.098C339.449 754.568 300.388 716.444 253.567 686.718C160.306 627.363 46.2613 608.204 -58.3915 569.124C-136.218 540.082 -166.386 498.686 -197.446 438.075C-226.34 381.701 -270.135 324.839 -333.077 295.62C-394.718 267.004 -464.698 256.449 -532.914 260.31" stroke="#13AE67" stroke-width="0.864782" stroke-miterlimit="10"/>
<path d="M1180.59 1086.65C1156.09 1060.03 1108.76 1027.88 1057.12 1013.57C1004.69 999.043 947.905 993.12 891.976 984.838C796.656 970.719 700.794 954.59 613.988 920.92C530.134 888.4 453.267 840.695 379.822 782.424C336.467 748.018 297.017 710.604 250.141 681.365C156.832 623.01 43.5184 603.559 -60.679 564.604C-138.01 535.709 -169.889 494.789 -202.058 434.93C-231.806 379.57 -275.184 323.235 -338.141 295.535C-399.615 268.483 -468.765 259.375 -536.437 263.489" stroke="#13AE67" stroke-width="0.864782" stroke-miterlimit="10"/>
<path d="M1184.25 1082.88C1157.19 1057.46 1108.41 1026.03 1055.57 1012.5C1001.87 998.748 943.969 993.075 886.873 984.547C791.163 970.253 694.869 952.908 608.499 917.504C525.393 883.434 450.165 834.033 376.669 775.737C333.468 741.459 293.624 704.753 246.692 676C153.336 618.645 40.7506 598.907 -62.9875 560.067C-139.823 531.32 -173.406 490.874 -206.686 431.771C-237.283 377.427 -280.242 321.616 -343.214 295.436C-404.522 269.947 -472.846 262.283 -539.968 266.648" stroke="#13AE67" stroke-width="0.864782" stroke-miterlimit="10"/>
<path d="M1187.87 1079.09C1158.26 1054.9 1108.02 1024.18 1054 1011.43C999.025 998.449 940.007 993.021 881.738 984.249C785.637 969.782 688.912 951.231 602.98 914.079C520.615 878.47 447.027 827.364 373.485 769.041C330.43 734.89 290.198 698.895 243.211 670.629C149.806 614.273 37.9518 594.244 -65.3308 555.528C-141.67 526.929 -176.946 486.958 -211.347 428.606C-242.787 375.277 -285.331 319.987 -348.326 295.331C-409.46 271.401 -476.964 265.193 -543.54 269.807" stroke="#13AE67" stroke-width="0.864782" stroke-miterlimit="10"/>
<path d="M1191.52 1075.32C1159.36 1052.35 1107.65 1022.33 1052.45 1010.36C996.2 998.165 936.068 992.983 876.628 983.963C780.139 969.328 682.976 949.572 597.49 910.667C515.872 873.522 443.924 820.706 370.336 762.36C327.434 728.336 286.808 693.049 239.76 665.268C146.313 609.914 35.1826 589.596 -67.6408 550.995C-143.484 522.544 -180.452 483.044 -215.976 425.45C-248.247 373.137 -290.387 318.364 -353.406 295.233C-414.365 272.86 -481.052 268.103 -547.077 272.968" stroke="#13AE67" stroke-width="0.864782" stroke-miterlimit="10"/>
<path d="M1195.2 1071.54C1160.48 1049.79 1107.31 1020.49 1050.93 1009.3C993.406 997.885 932.162 992.944 871.549 983.68C774.667 968.875 677.074 947.922 592.027 907.256C511.15 868.587 440.841 814.05 367.208 755.679C324.454 721.779 283.438 687.205 236.337 659.908C142.842 605.553 32.4402 584.948 -69.9258 546.467C-145.273 518.164 -183.916 479.137 -220.586 422.298C-253.681 370.998 -295.416 316.741 -358.467 295.141C-419.247 274.318 -485.121 271.019 -550.595 276.135" stroke="#13AE67" stroke-width="0.864782" stroke-miterlimit="10"/>
<path d="M1198.86 1067.77C1161.58 1047.23 1106.95 1018.65 1049.38 1008.23C990.591 997.593 928.233 992.897 866.447 983.389C769.175 968.42 671.141 946.271 586.543 903.843C506.405 863.653 437.743 807.396 364.058 748.999C321.456 715.23 280.052 681.362 232.891 654.55C139.348 601.194 29.6773 580.298 -72.2313 541.937C-147.083 513.782 -187.4 475.225 -225.211 419.145C-259.118 368.856 -300.464 315.113 -363.539 295.052C-424.144 275.773 -489.198 273.944 -554.127 279.309" stroke="#13AE67" stroke-width="0.864782" stroke-miterlimit="10"/>
<path d="M1202.49 1063.98C1162.66 1044.67 1106.56 1016.8 1047.81 1007.16C987.743 997.303 924.271 992.852 861.316 983.092C763.657 967.955 665.182 944.619 581.028 900.419C501.623 858.71 434.615 800.725 360.879 742.303C318.425 708.659 276.631 675.505 229.414 649.179C135.83 596.821 26.8813 575.64 -74.5699 537.399C-148.926 509.392 -190.903 471.301 -229.869 415.985C-264.586 366.702 -305.543 313.473 -368.647 294.948C-429.069 277.212 -493.314 276.849 -557.698 282.462" stroke="#13AE67" stroke-width="0.864782" stroke-miterlimit="10"/>
<path d="M1206.15 1060.21C1163.75 1042.11 1106.21 1014.96 1046.27 1006.09C984.932 997.023 920.342 992.816 856.216 982.809C758.166 967.507 659.244 942.986 575.548 897.009C496.876 853.791 431.515 794.071 357.734 735.623C315.433 702.105 273.245 669.659 225.969 643.818C132.337 592.459 24.1187 570.987 -76.8798 532.864C-150.735 505.007 -194.369 467.375 -234.502 412.821C-270.014 364.541 -310.592 311.822 -373.731 294.845C-433.969 278.648 -497.401 279.756 -561.241 285.622" stroke="#13AE67" stroke-width="0.864782" stroke-miterlimit="10"/>
<path d="M1209.8 1056.43C1164.85 1039.55 1105.85 1013.12 1044.72 1005.03C982.109 996.738 916.405 992.776 851.108 982.52C752.667 967.059 653.295 941.356 570.055 893.593C492.115 848.87 428.41 787.408 354.577 728.935C312.422 695.545 269.846 663.81 222.516 638.452C128.836 588.093 21.3469 566.334 -79.1942 528.33C-152.553 500.621 -197.833 463.449 -239.136 409.665C-275.443 362.384 -315.641 310.175 -378.81 294.748C-438.867 280.083 -501.49 282.671 -564.778 288.785" stroke="#13AE67" stroke-width="0.864782" stroke-miterlimit="10"/>
<path d="M1213.45 1052.66C1165.95 1036.99 1105.49 1011.28 1043.18 1003.96C979.293 996.462 912.472 992.859 846.005 982.232C747.166 966.78 647.351 939.73 564.573 890.179C487.356 843.956 425.309 780.75 351.429 722.254C309.427 688.991 266.458 657.964 219.072 633.092C125.344 583.733 18.5838 561.687 -81.4999 523.802C-154.363 496.241 -201.28 459.523 -243.761 406.515C-280.852 360.235 -320.68 308.53 -383.887 294.66C-443.759 281.519 -505.571 285.593 -568.312 291.955" stroke="#13AE67" stroke-width="0.864782" stroke-miterlimit="10"/>
<path d="M1217.1 1048.88C1167.05 1034.43 1105.12 1009.54 1041.62 1002.89C976.473 996.283 908.534 992.813 840.895 981.942C741.668 966.322 641.389 938.108 559.077 886.765C482.58 839.047 422.2 774.09 348.268 715.57C306.415 682.431 263.054 652.118 215.609 627.731C121.838 579.373 15.8032 557.034 -83.8231 519.269C-156.19 491.856 -204.735 455.586 -248.404 403.359C-286.274 358.071 -325.739 306.873 -388.979 294.561C-448.666 282.945 -509.671 288.502 -571.865 295.119" stroke="#13AE67" stroke-width="0.864782" stroke-miterlimit="10"/>
<path d="M1220.75 1045.1C1168.14 1031.88 1104.77 1007.7 1040.07 1001.83C973.651 995.995 904.597 992.775 835.788 981.651C736.168 965.862 635.429 936.49 553.59 883.349C477.807 834.141 419.094 767.43 345.121 708.885C303.421 675.873 259.668 646.267 212.167 622.368C118.348 575.009 13.0421 552.383 -86.1268 514.738C-157.998 487.473 -208.161 451.642 -253.032 400.203C-291.671 355.898 -330.786 305.21 -394.054 294.468C-453.557 284.367 -513.75 291.42 -575.397 298.286" stroke="#13AE67" stroke-width="0.864782" stroke-miterlimit="10"/>
<path d="M1224.42 1041.33C1169.25 1029.32 1104.42 1005.85 1038.54 1000.76C970.846 995.716 900.675 992.735 830.693 981.368C730.686 965.41 629.475 934.88 548.111 879.937C473.039 829.243 416 760.776 341.978 702.202C300.425 669.318 256.287 640.425 208.728 617.007C114.861 570.647 10.2857 547.73 -88.4259 510.205C-159.801 483.088 -211.581 447.692 -257.649 397.044C-297.057 353.722 -335.822 303.533 -399.123 294.37C-458.45 285.778 -517.833 294.332 -578.93 301.448" stroke="#13AE67" stroke-width="0.864782" stroke-miterlimit="10"/>
<path d="M1228.05 1037.55C1170.33 1026.76 1104.04 1004.01 1036.97 999.694C968.008 995.426 896.721 992.694 825.568 981.079C725.168 964.951 623.483 933.27 542.607 876.522C468.239 824.344 412.883 754.115 338.809 695.517C297.409 662.76 252.877 634.575 205.263 611.643C111.348 566.283 7.50225 543.079 -90.752 505.673C-161.632 478.704 -215.017 443.734 -262.295 393.89C-302.461 351.541 -340.888 301.862 -404.218 294.273C-463.358 287.188 -521.931 297.245 -582.478 304.613" stroke="#13AE67" stroke-width="0.864782" stroke-miterlimit="10"/>
<path d="M1231.71 1033.77C1171.44 1024.2 1103.68 1002.16 1035.43 998.623C965.199 995.136 892.794 992.647 820.469 980.784C719.683 964.485 617.512 931.662 537.124 873.1C463.453 819.438 409.78 747.448 335.66 688.827C294.408 656.194 249.487 628.719 201.813 606.272C107.857 561.91 4.73304 538.42 -93.0619 501.131C-163.446 474.31 -218.433 439.758 -266.929 390.723C-307.851 349.34 -345.943 300.167 -409.304 294.167C-468.268 288.578 -526.021 300.149 -586.029 307.767" stroke="#13AE67" stroke-width="0.864782" stroke-miterlimit="10"/>
<path d="M1235.37 1030C1172.54 1021.64 1103.33 1000.32 1033.89 997.561C962.39 994.855 888.864 992.613 815.369 980.502C714.19 964.032 611.535 930.064 531.641 869.695C458.667 814.555 406.685 740.798 332.513 682.152C291.412 649.649 246.098 622.882 198.369 600.922C104.365 557.56 1.97124 533.779 -95.3682 496.613C-165.256 469.94 -221.837 435.8 -271.555 387.583C-313.23 347.161 -350.994 298.497 -414.375 294.086C-473.163 289.993 -530.102 303.08 -589.557 310.945" stroke="#13AE67" stroke-width="0.864782" stroke-miterlimit="10"/>
<path d="M1239.03 1026.22C1173.63 1019.08 1102.97 998.474 1032.34 996.495C959.566 994.568 884.927 992.571 810.26 980.212C708.694 963.575 605.542 928.464 526.148 866.278C453.863 809.66 403.573 734.136 329.356 675.463C288.403 643.085 242.701 617.028 194.915 595.555C100.864 553.192 -0.800795 529.124 -97.6876 492.076C-167.08 465.55 -225.254 431.809 -276.192 384.42C-318.617 344.952 -356.059 296.798 -419.464 293.983C-478.079 291.381 -534.194 305.988 -593.104 314.102" stroke="#13AE67" stroke-width="0.864782" stroke-miterlimit="10"/>
<path d="M1242.68 1022.44C1174.73 1016.53 1102.61 996.629 1030.8 995.426C956.757 994.279 880.997 992.529 805.155 979.92C703.196 963.113 599.547 926.86 520.659 862.858C449.056 804.764 400.47 727.47 326.201 668.772C285.402 636.521 239.304 611.176 191.466 590.186C97.3707 548.824 -3.56777 524.464 -99.9972 487.535C-168.895 461.161 -228.652 427.809 -280.821 381.256C-323.996 342.732 -361.12 295.092 -424.543 293.877C-482.99 292.762 -538.281 308.89 -596.642 317.259" stroke="#13AE67" stroke-width="0.864782" stroke-miterlimit="10"/>
<path d="M1246.32 1018.66C1175.81 1013.96 1102.24 994.778 1029.24 994.354C953.921 993.986 877.046 992.486 800.032 979.628C697.685 962.653 593.526 925.262 515.156 859.44C444.23 799.873 397.353 720.81 323.033 662.088C282.38 629.965 235.9 605.328 187.996 584.821C93.8537 544.458 -6.35136 519.813 -102.328 483.002C-170.73 456.776 -232.072 423.806 -285.477 378.098C-329.393 340.513 -366.209 293.386 -429.645 293.782C-487.927 294.149 -542.388 311.81 -600.202 320.423" stroke="#13AE67" stroke-width="0.864782" stroke-miterlimit="10"/>
<path d="M1250 1014.9C1176.94 1011.42 1101.91 992.947 1027.71 993.298C951.13 993.714 873.138 992.453 794.953 979.348C692.213 962.202 587.412 923.791 509.691 856.036C439.321 795.099 394.269 714.161 319.908 655.415C279.408 623.418 232.533 599.494 184.574 579.473C90.3834 540.11 -9.09292 515.177 -104.61 478.482C-172.517 452.404 -235.436 419.802 -290.079 374.956C-334.738 338.299 -371.254 291.691 -434.698 293.701C-492.818 295.543 -546.45 314.737 -603.715 323.605" stroke="#13AE67" stroke-width="0.864782" stroke-miterlimit="10"/>
<path d="M1253.66 1011.12C1178.04 1008.86 1101.55 991.095 1026.17 992.228C948.313 993.422 869.205 992.411 789.849 979.058C686.722 961.744 581.461 922.137 504.208 852.62C434.555 790.158 391.172 707.5 316.76 648.728C276.408 616.856 229.144 593.641 181.13 574.107C86.8916 535.744 -11.854 510.521 -106.916 473.949C-174.326 448.019 -238.827 415.778 -294.704 371.801C-340.109 336.066 -376.343 289.906 -439.773 293.603C-497.755 296.85 -550.528 317.649 -607.248 326.766" stroke="#13AE67" stroke-width="0.864782" stroke-miterlimit="10"/>
<path d="M1257.31 1007.34C1179.14 1006.29 1101.19 989.251 1024.63 991.16C945.502 993.136 865.275 992.367 784.746 978.77C681.226 961.286 575.509 920.489 498.721 849.204C429.789 785.212 388.066 700.839 313.608 642.041C273.408 610.3 225.751 587.793 177.683 568.742C83.4013 531.381 -14.6202 505.868 -109.223 469.412C-176.137 443.63 -242.212 411.738 -299.333 368.635C-345.48 333.815 -381.405 288.25 -444.854 293.498C-502.667 298.281 -554.619 320.556 -610.787 329.921" stroke="#13AE67" stroke-width="0.864782" stroke-miterlimit="10"/>
</svg>
