<svg width="41" height="41" viewBox="0 0 41 41" fill="none" xmlns="http://www.w3.org/2000/svg">
<path d="M0.0787673 40.2501V0.0787673H40.2501V40.2501H0.0787673Z" stroke="#46B97D" stroke-width="0.157535"/>
<path d="M35.5177 20.1643H30.4766C29.8081 20.1643 29.167 20.4299 28.6943 20.9026C28.2216 21.3753 27.9561 22.0164 27.9561 22.6849V28.9863C27.9561 29.6548 28.2216 30.2959 28.6943 30.7686C29.167 31.2413 29.8081 31.5068 30.4766 31.5068H32.9972C33.6657 31.5068 34.3068 31.2413 34.7795 30.7686C35.2522 30.2959 35.5177 29.6548 35.5177 28.9863V20.1643ZM35.5177 20.1643C35.5177 18.1687 35.1227 16.1927 34.3555 14.3504C33.5883 12.5081 32.4641 10.8359 31.0476 9.43008C29.6311 8.02428 27.9504 6.91274 26.1023 6.15953C24.2542 5.40631 22.2754 5.02632 20.2797 5.04145C18.2841 5.02632 16.3052 5.40631 14.4572 6.15953C12.6091 6.91274 10.9284 8.02428 9.51189 9.43008C8.09539 10.8359 6.97114 12.5081 6.20394 14.3504C5.43673 16.1927 5.04175 18.1687 5.04175 20.1643V28.9863C5.04175 29.6548 5.30731 30.2959 5.78 30.7686C6.2527 31.2413 6.89381 31.5068 7.5623 31.5068H10.0829C10.7513 31.5068 11.3925 31.2413 11.8652 30.7686C12.3379 30.2959 12.6034 29.6548 12.6034 28.9863V22.6849C12.6034 22.0164 12.3379 21.3753 11.8652 20.9026C11.3925 20.4299 10.7513 20.1643 10.0829 20.1643H5.04175" stroke="#46B97D" stroke-width="2.52055" stroke-linecap="round" stroke-linejoin="round"/>
<path d="M35.5174 28.9863V32.7672C35.5174 34.1041 34.9863 35.3864 34.0409 36.3318C33.0955 37.2771 31.8133 37.8083 30.4763 37.8083H21.425" stroke="#46B97D" stroke-width="2.52055" stroke-linecap="round" stroke-linejoin="round"/>
</svg>
