<svg width="100" height="101" viewBox="0 0 100 101" fill="none" xmlns="http://www.w3.org/2000/svg">
<path d="M0.000732422 50.0952C0.000732422 22.481 22.3865 0.0952148 50.0007 0.0952148C77.615 0.0952148 100.001 22.481 100.001 50.0952C100.001 77.7095 77.615 100.095 50.0007 100.095C22.3865 100.095 0.000732422 77.7095 0.000732422 50.0952Z" fill="white"/>
<path opacity="0.2" d="M46.346 39.148C48.1242 39.148 49.5657 37.7065 49.5657 35.9283C49.5657 34.15 48.1242 32.7085 46.346 32.7085C44.5678 32.7085 43.1262 34.15 43.1262 35.9283C43.1262 37.7065 44.5678 39.148 46.346 39.148Z" fill="#46B97D"/>
<path d="M46.346 39.148C48.1242 39.148 49.5657 37.7065 49.5657 35.9283C49.5657 34.15 48.1242 32.7085 46.346 32.7085C44.5678 32.7085 43.1262 34.15 43.1262 35.9283C43.1262 37.7065 44.5678 39.148 46.346 39.148Z" stroke="#46B97D" stroke-width="2.57581" stroke-linecap="round" stroke-linejoin="round"/>
<path d="M46.3459 39.1479V50.7391H60.5129L65.6645 61.0423L69.5282 59.7544" stroke="#46B97D" stroke-width="2.57581" stroke-linecap="round" stroke-linejoin="round"/>
<path d="M57.917 55.891C57.7913 57.8975 57.0815 59.8234 55.8748 61.4314C54.6682 63.0394 53.0175 64.2592 51.1261 64.9407C49.2347 65.6221 47.1853 65.7353 45.2304 65.2664C43.2755 64.7975 41.5004 63.7669 40.124 62.3016C38.7476 60.8363 37.8299 59.0004 37.484 57.02C37.1381 55.0395 37.3791 53.0012 38.1774 51.1561C38.9756 49.311 40.2962 47.7397 41.9765 46.6359C43.6567 45.5321 45.6232 44.9439 47.6335 44.9438H56.6489" stroke="#46B97D" stroke-width="2.57581" stroke-linecap="round" stroke-linejoin="round"/>
</svg>
