<svg width="101" height="102" viewBox="0 0 101 102" fill="none" xmlns="http://www.w3.org/2000/svg">
<path d="M0.041748 50.8129C0.041748 22.9716 22.6115 0.401855 50.4528 0.401855C78.2941 0.401855 100.864 22.9716 100.864 50.8129C100.864 78.6542 78.2941 101.224 50.4528 101.224C22.6115 101.224 0.041748 78.6542 0.041748 50.8129Z" fill="white"/>
<path d="M65.8061 50.8128H60.765C60.0965 50.8128 59.4553 51.0783 58.9827 51.551C58.51 52.0237 58.2444 52.6648 58.2444 53.3333V59.6347C58.2444 60.3032 58.51 60.9443 58.9827 61.417C59.4553 61.8897 60.0965 62.1553 60.765 62.1553H63.2855C63.954 62.1553 64.5951 61.8897 65.0678 61.417C65.5405 60.9443 65.8061 60.3032 65.8061 59.6347V50.8128ZM65.8061 50.8128C65.8061 48.8171 65.4111 46.8412 64.6439 44.9989C63.8767 43.1566 62.7524 41.4843 61.3359 40.0785C59.9194 38.6727 58.2387 37.5612 56.3906 36.808C54.5426 36.0548 52.5637 35.6748 50.5681 35.6899C48.5725 35.6748 46.5936 36.0548 44.7455 36.808C42.8974 37.5612 41.2167 38.6727 39.8002 40.0785C38.3837 41.4843 37.2595 43.1566 36.4923 44.9989C35.7251 46.8412 35.3301 48.8171 35.3301 50.8128V59.6347C35.3301 60.3032 35.5956 60.9443 36.0683 61.417C36.541 61.8897 37.1821 62.1553 37.8506 62.1553H40.3712C41.0397 62.1553 41.6808 61.8897 42.1535 61.417C42.6262 60.9443 42.8917 60.3032 42.8917 59.6347V53.3333C42.8917 52.6648 42.6262 52.0237 42.1535 51.551C41.6808 51.0783 41.0397 50.8128 40.3712 50.8128H35.3301" stroke="#46B97D" stroke-width="2.52055" stroke-linecap="round" stroke-linejoin="round"/>
<path d="M65.8058 59.6348V63.4156C65.8058 64.7526 65.2746 66.0348 64.3293 66.9802C63.3839 67.9256 62.1016 68.4567 60.7647 68.4567H51.7134" stroke="#46B97D" stroke-width="2.52055" stroke-linecap="round" stroke-linejoin="round"/>
</svg>
