<svg width="57" height="56" viewBox="0 0 57 56" fill="none" xmlns="http://www.w3.org/2000/svg">
<path d="M0.333984 28C0.333984 12.536 12.87 0 28.334 0C43.798 0 56.334 12.536 56.334 28C56.334 43.464 43.798 56 28.334 56C12.87 56 0.333984 43.464 0.333984 28Z" fill="white"/>
<path d="M34.3341 23.16C34.2741 23.15 34.2041 23.15 34.1441 23.16C32.7641 23.11 31.6641 21.98 31.6641 20.58C31.6641 19.15 32.8141 18 34.2441 18C35.6741 18 36.8241 19.16 36.8241 20.58C36.8141 21.98 35.7141 23.11 34.3341 23.16Z" stroke="#46B97D" stroke-width="1.5" stroke-linecap="round" stroke-linejoin="round"/>
<path d="M33.3034 30.4399C34.6734 30.6699 36.1834 30.4299 37.2434 29.7199C38.6534 28.7799 38.6534 27.2399 37.2434 26.2999C36.1734 25.5899 34.6434 25.3499 33.2734 25.5899" stroke="#46B97D" stroke-width="1.5" stroke-linecap="round" stroke-linejoin="round"/>
<path d="M22.3025 23.16C22.3625 23.15 22.4325 23.15 22.4925 23.16C23.8725 23.11 24.9725 21.98 24.9725 20.58C24.9725 19.15 23.8225 18 22.3925 18C20.9625 18 19.8125 19.16 19.8125 20.58C19.8225 21.98 20.9225 23.11 22.3025 23.16Z" stroke="#46B97D" stroke-width="1.5" stroke-linecap="round" stroke-linejoin="round"/>
<path d="M23.3334 30.4399C21.9634 30.6699 20.4534 30.4299 19.3934 29.7199C17.9834 28.7799 17.9834 27.2399 19.3934 26.2999C20.4634 25.5899 21.9934 25.3499 23.3634 25.5899" stroke="#46B97D" stroke-width="1.5" stroke-linecap="round" stroke-linejoin="round"/>
<path d="M28.3341 30.63C28.2741 30.62 28.2041 30.62 28.1441 30.63C26.7641 30.58 25.6641 29.45 25.6641 28.05C25.6641 26.62 26.8141 25.47 28.2441 25.47C29.6741 25.47 30.8241 26.63 30.8241 28.05C30.8141 29.45 29.7141 30.59 28.3341 30.63Z" stroke="#46B97D" stroke-width="1.5" stroke-linecap="round" stroke-linejoin="round"/>
<path d="M25.4247 33.7799C24.0147 34.7199 24.0147 36.2599 25.4247 37.1999C27.0247 38.2699 29.6447 38.2699 31.2447 37.1999C32.6547 36.2599 32.6547 34.7199 31.2447 33.7799C29.6547 32.7199 27.0247 32.7199 25.4247 33.7799Z" stroke="#46B97D" stroke-width="1.5" stroke-linecap="round" stroke-linejoin="round"/>
</svg>
