<svg width="56" height="56" viewBox="0 0 56 56" fill="none" xmlns="http://www.w3.org/2000/svg">
<path d="M0 28C0 12.536 12.536 0 28 0C43.464 0 56 12.536 56 28C56 43.464 43.464 56 28 56C12.536 56 0 43.464 0 28Z" fill="white"/>
<path d="M26.4902 18.2301L21.5002 20.1101C20.3502 20.5401 19.4102 21.9001 19.4102 23.1201V30.5501C19.4102 31.7301 20.1902 33.2801 21.1402 33.9901L25.4402 37.2001C26.8502 38.2601 29.1702 38.2601 30.5802 37.2001L34.8802 33.9901C35.8302 33.2801 36.6102 31.7301 36.6102 30.5501V23.1201C36.6102 21.8901 35.6702 20.5301 34.5202 20.1001L29.5302 18.2301C28.6802 17.9201 27.3202 17.9201 26.4902 18.2301Z" stroke="#46B97D" stroke-width="1.5" stroke-linecap="round" stroke-linejoin="round"/>
<path d="M28 28.5C29.1046 28.5 30 27.6046 30 26.5C30 25.3954 29.1046 24.5 28 24.5C26.8954 24.5 26 25.3954 26 26.5C26 27.6046 26.8954 28.5 28 28.5Z" stroke="#46B97D" stroke-width="1.5" stroke-miterlimit="10" stroke-linecap="round" stroke-linejoin="round"/>
<path d="M28 28.5V31.5" stroke="#46B97D" stroke-width="1.5" stroke-miterlimit="10" stroke-linecap="round" stroke-linejoin="round"/>
</svg>
