<svg width="24" height="25" viewBox="0 0 24 25" fill="none" xmlns="http://www.w3.org/2000/svg">
<path d="M6.9 21.1879C8.4 22.0879 10.2 22.5879 12 22.5879C17.5 22.5879 22 18.0879 22 12.5879C22 7.08789 17.5 2.58789 12 2.58789C6.5 2.58789 2 7.08789 2 12.5879C2 14.3879 2.5 16.0879 3.3 17.5879L2.44044 20.8939C2.24572 21.6428 2.93892 22.3196 3.68299 22.107L6.9 21.1879Z" stroke="#004B52" stroke-width="1.5" stroke-miterlimit="10" stroke-linecap="round" stroke-linejoin="round"/>
<path d="M16.5 15.4364C16.5 15.5984 16.4639 15.7649 16.3873 15.9269C16.3107 16.0889 16.2116 16.2419 16.0809 16.3859C15.86 16.6289 15.6167 16.8044 15.3418 16.9169C15.0714 17.0294 14.7784 17.0879 14.4629 17.0879C14.0033 17.0879 13.512 16.9799 12.9937 16.7594C12.4755 16.5389 11.9572 16.2419 11.4434 15.8684C10.9251 15.4904 10.4339 15.0719 9.9652 14.6084C9.501 14.1404 9.08187 13.6499 8.70781 13.1369C8.33826 12.6239 8.04081 12.1109 7.82449 11.6024C7.60816 11.0894 7.5 10.5989 7.5 10.1309C7.5 9.82489 7.55408 9.53239 7.66224 9.26239C7.77041 8.98789 7.94166 8.73589 8.18052 8.51089C8.46895 8.22739 8.78443 8.08789 9.11793 8.08789C9.24412 8.08789 9.37031 8.11489 9.48297 8.16889C9.60015 8.22289 9.70381 8.30389 9.78493 8.42089L10.8305 9.89239C10.9116 10.0049 10.9702 10.1084 11.0108 10.2074C11.0513 10.3019 11.0739 10.3964 11.0739 10.4819C11.0739 10.5899 11.0423 10.6979 10.9792 10.8014C10.9206 10.9049 10.835 11.0129 10.7268 11.1209L10.3843 11.4764C10.3348 11.5259 10.3122 11.5844 10.3122 11.6564C10.3122 11.6924 10.3167 11.7239 10.3257 11.7599C10.3393 11.7959 10.3528 11.8229 10.3618 11.8499C10.4429 11.9984 10.5826 12.1919 10.7809 12.4259C10.9837 12.6599 11.2 12.8984 11.4344 13.1369C11.6778 13.3754 11.9121 13.5959 12.151 13.7984C12.3853 13.9964 12.5791 14.1314 12.7323 14.2124C12.7549 14.2214 12.7819 14.2349 12.8135 14.2484C12.8495 14.2619 12.8856 14.2664 12.9261 14.2664C13.0028 14.2664 13.0613 14.2394 13.1109 14.1899L13.4534 13.8524C13.5661 13.7399 13.6743 13.6544 13.7779 13.6004C13.8816 13.5374 13.9852 13.5059 14.0979 13.5059C14.1835 13.5059 14.2737 13.5239 14.3728 13.5644C14.472 13.6049 14.5756 13.6634 14.6883 13.7399L16.18 14.7974C16.2972 14.8784 16.3783 14.9729 16.4279 15.0854C16.473 15.1979 16.5 15.3104 16.5 15.4364Z" stroke="#004B52" stroke-width="1.5" stroke-miterlimit="10"/>
</svg>
