<svg width="24" height="24" viewBox="0 0 24 24" fill="none" xmlns="http://www.w3.org/2000/svg">
<path d="M0.0795174 23.9195V0.0804939H23.9185V23.9195H0.0795174Z" stroke="#46B97D" stroke-width="0.160988"/>
<path opacity="0.2" d="M10.7838 3.75C10.7838 4.74108 9.98034 5.54451 8.98926 5.54451C7.99818 5.54451 7.19475 4.74108 7.19475 3.75C7.19475 2.75892 7.99818 1.95549 8.98926 1.95549C9.98034 1.95549 10.7838 2.75892 10.7838 3.75Z" stroke="#46B97D" stroke-width="0.160988"/>
<path d="M8.98926 5.625C10.0248 5.625 10.8643 4.78553 10.8643 3.75C10.8643 2.71447 10.0248 1.875 8.98926 1.875C7.95372 1.875 7.11426 2.71447 7.11426 3.75C7.11426 4.78553 7.95372 5.625 8.98926 5.625Z" stroke="#46B97D" stroke-width="2.57581" stroke-linecap="round" stroke-linejoin="round"/>
<path d="M8.98926 5.625V12.375H17.2393L20.2393 18.375L22.4893 17.625" stroke="#46B97D" stroke-width="2.57581" stroke-linecap="round" stroke-linejoin="round"/>
<path d="M15.7267 15.375C15.6536 16.5435 15.2402 17.665 14.5375 18.6014C13.8349 19.5378 12.8736 20.2482 11.7722 20.645C10.6707 21.0418 9.47727 21.1078 8.33884 20.8347C7.2004 20.5616 6.16672 19.9614 5.36516 19.1081C4.5636 18.2548 4.02919 17.1857 3.82776 16.0324C3.62633 14.8792 3.76669 13.6921 4.23155 12.6177C4.69641 11.5432 5.46545 10.6282 6.44392 9.98535C7.42239 9.34254 8.56754 9.00002 9.73828 9H14.9883" stroke="#46B97D" stroke-width="2.57581" stroke-linecap="round" stroke-linejoin="round"/>
</svg>
