<svg width="574" height="120" viewBox="0 0 574 120" fill="none" xmlns="http://www.w3.org/2000/svg">
<path d="M571.988 60.3337C571.988 63.7282 570.334 67.2518 566.736 70.8879C563.132 74.5301 557.713 78.1395 550.557 81.6384C536.253 88.632 515.426 94.9854 489.527 100.341C437.762 111.047 366.157 117.683 287.002 117.683C207.847 117.683 136.242 111.047 84.477 100.341C58.578 94.9854 37.7508 88.632 23.4469 81.6384C16.2908 78.1395 10.8717 74.5301 7.26783 70.8879C3.66994 67.2518 2.01562 63.7282 2.01562 60.3337C2.01562 56.9391 3.66994 53.4155 7.26783 49.7795C10.8717 46.1373 16.2908 42.5278 23.4469 39.029C37.7508 32.0353 58.578 25.6819 84.477 20.3259C136.242 9.6208 207.847 2.98438 287.002 2.98438C366.157 2.98438 437.762 9.6208 489.527 20.3259C515.426 25.6819 536.253 32.0353 550.557 39.029C557.713 42.5278 563.132 46.1373 566.736 49.7795C570.334 53.4155 571.988 56.9391 571.988 60.3337Z" stroke="#FFCC00" stroke-width="4"/>
</svg>
