<svg width="41" height="41" viewBox="0 0 41 41" fill="none" xmlns="http://www.w3.org/2000/svg">
<path d="M35.8061 20.8128H30.765C30.0965 20.8128 29.4553 21.0783 28.9827 21.551C28.51 22.0237 28.2444 22.6648 28.2444 23.3333V29.6347C28.2444 30.3032 28.51 30.9443 28.9827 31.417C29.4553 31.8897 30.0965 32.1553 30.765 32.1553H33.2855C33.954 32.1553 34.5951 31.8897 35.0678 31.417C35.5405 30.9443 35.8061 30.3032 35.8061 29.6347V20.8128ZM35.8061 20.8128C35.8061 18.8171 35.4111 16.8412 34.6439 14.9989C33.8767 13.1566 32.7524 11.4843 31.3359 10.0785C29.9194 8.67272 28.2387 7.56118 26.3906 6.80797C24.5426 6.05475 22.5637 5.67476 20.5681 5.68989C18.5725 5.67476 16.5936 6.05475 14.7455 6.80797C12.8974 7.56118 11.2167 8.67272 9.80022 10.0785C8.38372 11.4843 7.25947 13.1566 6.49227 14.9989C5.72506 16.8412 5.33008 18.8171 5.33008 20.8128V29.6347C5.33008 30.3032 5.59564 30.9443 6.06833 31.417C6.54103 31.8897 7.18214 32.1553 7.85063 32.1553H10.3712C11.0397 32.1553 11.6808 31.8897 12.1535 31.417C12.6262 30.9443 12.8917 30.3032 12.8917 29.6347V23.3333C12.8917 22.6648 12.6262 22.0237 12.1535 21.551C11.6808 21.0783 11.0397 20.8128 10.3712 20.8128H5.33008" stroke="#46B97D" stroke-width="2.52055" stroke-linecap="round" stroke-linejoin="round"/>
<path d="M35.8058 29.6348V33.4156C35.8058 34.7526 35.2746 36.0348 34.3293 36.9802C33.3839 37.9256 32.1016 38.4567 30.7647 38.4567H21.7134" stroke="#46B97D" stroke-width="2.52055" stroke-linecap="round" stroke-linejoin="round"/>
</svg>
