<svg width="99" height="100" viewBox="0 0 99 100" fill="none" xmlns="http://www.w3.org/2000/svg">
<path d="M0.173584 49.7617C0.173584 22.5455 22.2367 0.482422 49.4529 0.482422C76.6691 0.482422 98.7322 22.5455 98.7322 49.7617C98.7322 76.9779 76.6691 99.041 49.4529 99.041C22.2367 99.041 0.173584 76.9779 0.173584 49.7617Z" fill="white"/>
<path d="M44.4092 33.335H37.9864C34.6683 33.335 33.0256 34.9776 33.0256 38.2957V44.7349C33.0256 48.1187 34.6683 49.7614 37.9864 49.6793H44.4256C47.8094 49.7614 49.4521 48.1188 49.3699 44.7185V38.2957C49.4521 34.9776 47.8094 33.335 44.4092 33.335ZM44.5406 46.0819C43.4236 46.0819 42.3394 45.6548 41.436 44.8992C40.4175 45.6384 39.1855 46.0819 37.855 46.0819C37.1815 46.0819 36.623 45.5234 36.623 44.8499C36.623 44.1764 37.1815 43.6179 37.855 43.6179C39.5305 43.6179 40.9267 42.4681 41.436 40.8911H37.855C37.1815 40.8911 36.623 40.3326 36.623 39.6591C36.623 38.9857 37.1815 38.4272 37.855 38.4272H39.974C40.0397 37.803 40.5489 37.3102 41.1896 37.3102C41.8302 37.3102 42.3394 37.803 42.4051 38.4272H42.8322C42.8486 38.4272 42.8651 38.4272 42.8651 38.4272H42.8979H44.5241C45.1976 38.4272 45.7561 38.9857 45.7561 39.6591C45.7561 40.3326 45.214 40.8911 44.5241 40.8911H43.9821C43.8342 41.6796 43.5221 42.4188 43.1115 43.0923C43.555 43.4208 44.0313 43.6179 44.5406 43.6179C45.214 43.6179 45.7725 44.1764 45.7725 44.8499C45.7725 45.5234 45.214 46.0819 44.5406 46.0819Z" fill="#46B97D"/>
<path d="M44.5242 67.42C37.5101 67.42 31.7937 61.7036 31.7937 54.6895C31.7937 54.016 32.3522 53.4575 33.0257 53.4575C33.6992 53.4575 34.2577 54.016 34.2577 54.6895C34.2577 59.5517 37.6415 63.6255 42.1916 64.6932L41.7481 63.954C41.4032 63.3627 41.5839 62.607 42.1752 62.2621C42.7501 61.9171 43.5222 62.0978 43.8671 62.6892L45.5919 65.5638C45.8219 65.9416 45.8219 66.418 45.6083 66.7958C45.3784 67.1736 44.9677 67.42 44.5242 67.42Z" fill="#46B97D"/>
<path d="M65.8778 46.0655C65.2043 46.0655 64.6458 45.507 64.6458 44.8335C64.6458 39.9713 61.2619 35.8975 56.7118 34.8298L57.1553 35.569C57.5003 36.1604 57.3196 36.916 56.7282 37.2609C56.1533 37.6059 55.3813 37.4252 55.0363 36.8338L53.3116 33.9592C53.0816 33.5814 53.0816 33.105 53.2951 32.7272C53.5251 32.3494 53.9358 32.103 54.3793 32.103C61.3934 32.103 67.1098 37.8194 67.1098 44.8335C67.1098 45.507 66.5513 46.0655 65.8778 46.0655Z" fill="#46B97D"/>
<path d="M57.5353 49.5151C52.9359 49.5151 49.1907 53.2439 49.1907 57.8598C49.1907 62.4592 52.9195 66.2044 57.5353 66.2044C62.1347 66.2044 65.8799 62.4756 65.8799 57.8598C65.8799 53.2439 62.1511 49.5151 57.5353 49.5151ZM61.6091 61.8185C61.0013 62.1142 60.2621 61.8842 59.95 61.26L59.6707 60.7015H55.4163L55.137 61.26C54.9235 61.6871 54.48 61.9335 54.0365 61.9335C53.8558 61.9335 53.6587 61.8842 53.4944 61.8021C52.8866 61.49 52.6402 60.7508 52.9359 60.143L56.4512 53.129C56.6647 52.7183 57.0918 52.4555 57.5517 52.4555C58.0117 52.4555 58.4388 52.7183 58.6523 53.1454L62.1676 60.1595C62.4632 60.7672 62.2168 61.5064 61.6091 61.8185Z" fill="#46B97D"/>
<path d="M56.6499 58.2377H58.4404L57.5369 56.4473L56.6499 58.2377Z" fill="#46B97D"/>
</svg>
