<svg width="24" height="25" viewBox="0 0 24 25" fill="none" xmlns="http://www.w3.org/2000/svg">
<path d="M9 22.5879H15C20 22.5879 22 20.5879 22 15.5879V9.58789C22 4.58789 20 2.58789 15 2.58789H9C4 2.58789 2 4.58789 2 9.58789V15.5879C2 20.5879 4 22.5879 9 22.5879Z" stroke="#004B52" stroke-width="1.5" stroke-linecap="round" stroke-linejoin="round"/>
<path d="M12 16.0879C13.933 16.0879 15.5 14.5209 15.5 12.5879C15.5 10.6549 13.933 9.08789 12 9.08789C10.067 9.08789 8.5 10.6549 8.5 12.5879C8.5 14.5209 10.067 16.0879 12 16.0879Z" stroke="#004B52" stroke-width="1.5" stroke-linecap="round" stroke-linejoin="round"/>
<path d="M17.6361 7.58789H17.6477" stroke="#004B52" stroke-width="2" stroke-linecap="round" stroke-linejoin="round"/>
</svg>
