<svg width="24" height="25" viewBox="0 0 24 25" fill="none" xmlns="http://www.w3.org/2000/svg">
<path d="M16.97 12.4146V16.9146C16.97 20.6646 15.47 22.1646 11.72 22.1646H7.21997C3.46997 22.1646 1.96997 20.6646 1.96997 16.9146V12.4146C1.96997 8.66455 3.46997 7.16455 7.21997 7.16455H11.72C15.47 7.16455 16.97 8.66455 16.97 12.4146Z" stroke="#46B97D" stroke-width="1.5" stroke-linecap="round" stroke-linejoin="round"/>
<path d="M21.97 6.01455V9.31455C21.97 12.0646 20.87 13.1646 18.12 13.1646H16.97V12.4146C16.97 8.66455 15.47 7.16455 11.72 7.16455H10.97V6.01455C10.97 3.26455 12.07 2.16455 14.82 2.16455H18.12C20.87 2.16455 21.97 3.26455 21.97 6.01455Z" stroke="#46B97D" stroke-width="1.5" stroke-linecap="round" stroke-linejoin="round"/>
</svg>
