<svg width="175" height="206" viewBox="0 0 175 206" fill="none" xmlns="http://www.w3.org/2000/svg">
<path d="M126.397 0.786377H48.9108C10.1677 0.786377 0.533203 11.1384 0.533203 52.4438V167.853C0.533203 195.117 15.4975 201.574 33.639 182.1L33.7415 181.997C42.1461 173.08 54.958 173.798 62.2351 183.535L72.5871 197.372C80.8892 208.338 94.316 208.338 102.618 197.372L112.97 183.535C120.35 173.695 133.162 172.978 141.566 181.997C159.81 201.471 174.672 195.014 174.672 167.751V52.4438C174.774 11.1384 165.14 0.786377 126.397 0.786377ZM118.402 100.719H56.9054C52.7031 100.719 49.2183 97.234 49.2183 93.0317C49.2183 88.8295 52.7031 85.3446 56.9054 85.3446H118.402C122.605 85.3446 126.089 88.8295 126.089 93.0317C126.089 97.234 122.605 100.719 118.402 100.719ZM128.652 59.7209H46.6559C42.4536 59.7209 38.9688 56.2361 38.9688 52.0338C38.9688 47.8315 42.4536 44.3467 46.6559 44.3467H128.652C132.854 44.3467 136.339 47.8315 136.339 52.0338C136.339 56.2361 132.854 59.7209 128.652 59.7209Z" fill="#46B97D"/>
</svg>
